G04*
G04 #@! TF.GenerationSoftware,Altium Limited,Altium Designer,21.8.1 (53)*
G04*
G04 Layer_Color=16711935*
%FSLAX43Y43*%
%MOMM*%
G71*
G04*
G04 #@! TF.SameCoordinates,8F43A1E2-94A4-4ABA-9861-1074310715B2*
G04*
G04*
G04 #@! TF.FilePolarity,Negative*
G04*
G01*
G75*
%ADD15C,0.152*%
%ADD19R,1.803X1.803*%
%ADD20C,1.803*%
%ADD21C,1.553*%
%ADD22R,1.553X1.553*%
%ADD23R,1.903X1.903*%
%ADD24C,1.903*%
%ADD25R,1.303X2.503*%
%ADD26C,1.603*%
%ADD27R,2.203X2.203*%
%ADD28C,1.803*%
G04:AMPARAMS|DCode=29|XSize=1.803mm|YSize=1.803mm|CornerRadius=0.502mm|HoleSize=0mm|Usage=FLASHONLY|Rotation=90.000|XOffset=0mm|YOffset=0mm|HoleType=Round|Shape=RoundedRectangle|*
%AMROUNDEDRECTD29*
21,1,1.803,0.800,0,0,90.0*
21,1,0.800,1.803,0,0,90.0*
1,1,1.003,0.400,0.400*
1,1,1.003,0.400,-0.400*
1,1,1.003,-0.400,-0.400*
1,1,1.003,-0.400,0.400*
%
%ADD29ROUNDEDRECTD29*%
%ADD30R,1.603X1.603*%
%ADD31R,1.850X1.850*%
%ADD32C,1.850*%
%ADD33R,2.000X2.000*%
%ADD34C,2.000*%
%ADD35C,2.103*%
%ADD36R,2.103X2.103*%
%ADD37R,2.153X2.153*%
%ADD38C,2.153*%
%ADD39C,4.203*%
%ADD40C,1.473*%
%ADD41C,1.981*%
D15*
X142240Y9652D02*
Y10499D01*
X142071Y10668D01*
X141732D01*
X141563Y10499D01*
Y9652D01*
X141224Y10668D02*
X140886D01*
X141055D01*
Y9652D01*
X141224Y9822D01*
D19*
X143256Y10160D02*
D03*
D20*
X140716D02*
D03*
X138176D02*
D03*
D21*
X91440Y5120D02*
D03*
X113030Y5160D02*
D03*
X132080Y5120D02*
D03*
X148971Y5120D02*
D03*
D22*
X91440Y10120D02*
D03*
X113030Y10160D02*
D03*
X132080Y10120D02*
D03*
X148971Y10120D02*
D03*
D23*
X101600Y10160D02*
D03*
X120650D02*
D03*
D24*
X104140D02*
D03*
X106680D02*
D03*
X123190D02*
D03*
X125730D02*
D03*
D25*
X66120Y61290D02*
D03*
X62820D02*
D03*
D26*
Y55390D02*
D03*
Y51190D02*
D03*
X96520Y39370D02*
D03*
X86360D02*
D03*
X133350Y41910D02*
D03*
X143510D02*
D03*
X104140Y67310D02*
D03*
X114300D02*
D03*
X96520Y71120D02*
D03*
X86360D02*
D03*
X133350Y60960D02*
D03*
X143510D02*
D03*
X86360Y43180D02*
D03*
X96520D02*
D03*
Y46990D02*
D03*
X86360D02*
D03*
X116840Y95250D02*
D03*
X106680D02*
D03*
Y90170D02*
D03*
X116840D02*
D03*
X86360Y50800D02*
D03*
X96520D02*
D03*
Y54610D02*
D03*
X86360D02*
D03*
X104140Y50800D02*
D03*
X114300D02*
D03*
X133350Y49530D02*
D03*
X143510D02*
D03*
X86360Y35560D02*
D03*
X96520D02*
D03*
X86360Y59690D02*
D03*
X96520D02*
D03*
Y63500D02*
D03*
X86360D02*
D03*
X104140Y35560D02*
D03*
X114300D02*
D03*
X104140Y58420D02*
D03*
X114300D02*
D03*
X133350Y57150D02*
D03*
X143510D02*
D03*
X133350Y64770D02*
D03*
X143510D02*
D03*
X86360Y20320D02*
D03*
X96520D02*
D03*
Y24130D02*
D03*
X86360D02*
D03*
Y82550D02*
D03*
X96520D02*
D03*
Y86360D02*
D03*
X86360D02*
D03*
X104140Y19050D02*
D03*
X114300D02*
D03*
X104140Y82550D02*
D03*
X114300D02*
D03*
X133350Y53340D02*
D03*
X143510D02*
D03*
X133350Y68580D02*
D03*
X143510D02*
D03*
X104140Y43180D02*
D03*
X114300D02*
D03*
X86360Y67310D02*
D03*
X96520D02*
D03*
X104140Y27940D02*
D03*
X114300D02*
D03*
X104140Y74930D02*
D03*
X114300D02*
D03*
X96520Y31750D02*
D03*
X86360D02*
D03*
X133350Y45720D02*
D03*
X143510D02*
D03*
X86360Y27940D02*
D03*
X96520D02*
D03*
Y78740D02*
D03*
X86360D02*
D03*
X133350Y72390D02*
D03*
X143510D02*
D03*
X86360Y74930D02*
D03*
X96520D02*
D03*
X104140Y54610D02*
D03*
X101540D02*
D03*
X104140Y39370D02*
D03*
X101540D02*
D03*
X104140Y63500D02*
D03*
X101540D02*
D03*
X104140Y24130D02*
D03*
X101540D02*
D03*
X104140Y86360D02*
D03*
X101540D02*
D03*
X104140Y46990D02*
D03*
X106740D02*
D03*
X104140Y71120D02*
D03*
X106740D02*
D03*
X104140Y31750D02*
D03*
X106740D02*
D03*
X104140Y78740D02*
D03*
X106740D02*
D03*
D27*
X66120Y45390D02*
D03*
X50720Y59090D02*
D03*
Y49090D02*
D03*
D28*
X149000Y63160D02*
D03*
Y60620D02*
D03*
Y58080D02*
D03*
Y53000D02*
D03*
Y47920D02*
D03*
Y45380D02*
D03*
Y50460D02*
D03*
Y55540D02*
D03*
D29*
Y42840D02*
D03*
D30*
X106740Y54610D02*
D03*
Y39370D02*
D03*
Y63500D02*
D03*
Y24130D02*
D03*
Y86360D02*
D03*
X101540Y46990D02*
D03*
Y71120D02*
D03*
Y31750D02*
D03*
Y78740D02*
D03*
D31*
X50800Y6350D02*
D03*
X83820D02*
D03*
X29210Y95250D02*
D03*
X78740D02*
D03*
D32*
X48260Y6350D02*
D03*
X45720D02*
D03*
X81280D02*
D03*
X78740D02*
D03*
X31750Y95250D02*
D03*
X34290D02*
D03*
X83820D02*
D03*
X81280D02*
D03*
D33*
X34290Y6350D02*
D03*
X67310D02*
D03*
X45720Y95250D02*
D03*
X62230D02*
D03*
D34*
X31750Y6350D02*
D03*
X29210D02*
D03*
X64770D02*
D03*
X62230D02*
D03*
X50800Y95250D02*
D03*
X48260D02*
D03*
X67310D02*
D03*
X64770D02*
D03*
D35*
X10922Y35306D02*
D03*
Y30226D02*
D03*
Y25146D02*
D03*
X10160Y63500D02*
D03*
Y58420D02*
D03*
Y53340D02*
D03*
D36*
X10922Y20066D02*
D03*
X10160Y48260D02*
D03*
D37*
X11430Y75010D02*
D03*
D38*
Y80010D02*
D03*
D39*
X95000Y15000D02*
D03*
X145000Y20000D02*
D03*
X95000Y95000D02*
D03*
X145000D02*
D03*
D40*
X130810Y33020D02*
D03*
X116078Y24892D02*
D03*
X128270Y86360D02*
D03*
X129540Y35560D02*
D03*
D41*
X53340Y40640D02*
D03*
X68580Y78740D02*
D03*
X52070Y80010D02*
D03*
X27940Y15240D02*
D03*
X39370Y26670D02*
D03*
X41910Y29210D02*
D03*
X68580Y82550D02*
D03*
X54610D02*
D03*
X25400Y12700D02*
D03*
M02*
