M48
;Layer_Color=9474304
;FILE_FORMAT=4:3
METRIC,LZ
;TYPE=PLATED
T1F00S00C0.711
T2F00S00C0.800
T3F00S00C0.850
T4F00S00C0.900
T5F00S00C1.000
T6F00S00C1.016
T7F00S00C1.100
T8F00S00C1.200
T9F00S00C1.300
T10F00S00C1.400
T11F00S00C3.500
%
T01
X0116078Y0024892
X013081Y003302
X012954Y003556
X012827Y008636
T02
X009144Y000512
Y001012
X011303Y001016
Y000516
X013208Y000512
Y001012
X0148971Y001012
Y000512
T03
X008636Y002032
Y002413
Y002794
Y003175
Y003556
Y003937
X009652
Y003556
Y003175
Y002794
Y002413
Y002032
X010414Y001905
Y002794
Y003556
X01143
Y002794
Y001905
X013335Y004191
Y004572
Y004953
Y005334
Y005715
Y006096
Y006477
Y006858
Y007239
X014351
Y006858
Y006477
Y006096
Y005715
Y005334
Y004953
Y004572
Y004191
X01143Y004318
Y00508
Y005842
Y006731
Y007493
X010414
Y006731
X009652
Y007112
Y007493
Y007874
X008636
Y007493
Y007112
Y006731
Y00635
Y005969
Y005461
Y00508
Y004699
Y004318
X009652
Y004699
Y00508
Y005461
Y005969
Y00635
X010414Y005842
Y00508
Y004318
Y008255
X009652
Y008636
X008636
Y008255
X010668Y009017
Y009525
X011684
Y009017
X01143Y008255
T04
X010154Y002413
X010414
X010674
Y003175
X010414
X010154
Y003937
X010414
X010674
Y004699
X010414
X010154
Y005461
X010414
X010674
Y00635
X010414
X010154
Y007112
X010414
X010674
Y007874
X010414
X010154
Y008636
X010414
X010674
T05
X0138176Y001016
X0140716
X0143256
T06
X00254Y00127
X002794Y001524
X003937Y002667
X004191Y002921
X005334Y004064
X006858Y007874
Y008255
X005461
X005207Y008001
T07
X01016Y001016
X010414
X010668
X012065
X012319
X012573
X0149Y004284
Y004538
Y004792
Y005046
Y0053
Y005554
Y005808
Y006062
Y006316
T08
X004572Y000635
X004826
X00508
X007874
X008128
X008382
X003429Y009525
X003175
X002921
X007874
X008128
X008382
T09
X002921Y000635
X003175
X003429
X006223
X006477
X006731
X001143Y007501
Y008001
X004572Y009525
X004826
X00508
X006223
X006477
X006731
T10
X0010922Y0020066
Y0025146
Y0030226
Y0035306
X001016Y004826
Y005334
Y005842
Y00635
T11
X0095Y0015
X0145Y002
X0095Y0095
X0145
M30
