G04*
G04 #@! TF.GenerationSoftware,Altium Limited,Altium Designer,21.8.1 (53)*
G04*
G04 Layer_Color=65535*
%FSLAX43Y43*%
%MOMM*%
G71*
G04*
G04 #@! TF.SameCoordinates,8F43A1E2-94A4-4ABA-9861-1074310715B2*
G04*
G04*
G04 #@! TF.FilePolarity,Positive*
G04*
G01*
G75*
%ADD10C,0.250*%
%ADD11C,0.200*%
%ADD12C,0.500*%
%ADD13C,0.100*%
%ADD14C,0.254*%
%ADD15C,0.152*%
D10*
X143381Y12660D02*
G03*
X143381Y12660I-125J0D01*
G01*
X99715Y9060D02*
G03*
X99715Y9060I-125J0D01*
G01*
X118765D02*
G03*
X118765Y9060I-125J0D01*
G01*
X128017Y27305D02*
G03*
X128017Y27305I-125J0D01*
G01*
X129287Y73025D02*
G03*
X129287Y73025I-125J0D01*
G01*
X108115Y54610D02*
G03*
X108115Y54610I-125J0D01*
G01*
X120775Y45050D02*
G03*
X120775Y45050I-125J0D01*
G01*
X108115Y39370D02*
G03*
X108115Y39370I-125J0D01*
G01*
Y63500D02*
G03*
X108115Y63500I-125J0D01*
G01*
Y24130D02*
G03*
X108115Y24130I-125J0D01*
G01*
Y86360D02*
G03*
X108115Y86360I-125J0D01*
G01*
X54360Y6350D02*
G03*
X54360Y6350I-125J0D01*
G01*
X87380D02*
G03*
X87380Y6350I-125J0D01*
G01*
X25900Y95250D02*
G03*
X25900Y95250I-125J0D01*
G01*
X100415Y46990D02*
G03*
X100415Y46990I-125J0D01*
G01*
X75430Y95250D02*
G03*
X75430Y95250I-125J0D01*
G01*
X34375Y8715D02*
G03*
X34375Y8715I-125J0D01*
G01*
X67395D02*
G03*
X67395Y8715I-125J0D01*
G01*
X100415Y71120D02*
G03*
X100415Y71120I-125J0D01*
G01*
X45885Y92885D02*
G03*
X45885Y92885I-125J0D01*
G01*
X62395D02*
G03*
X62395Y92885I-125J0D01*
G01*
X100415Y31750D02*
G03*
X100415Y31750I-125J0D01*
G01*
Y78740D02*
G03*
X100415Y78740I-125J0D01*
G01*
X11047Y15876D02*
G03*
X11047Y15876I-125J0D01*
G01*
X10285Y44070D02*
G03*
X10285Y44070I-125J0D01*
G01*
D11*
X92272Y5801D02*
G03*
X92515Y9307I-832J1819D01*
G01*
X90365D02*
G03*
X90608Y5801I1075J-1687D01*
G01*
X113862Y5841D02*
G03*
X114105Y9347I-832J1819D01*
G01*
X111955D02*
G03*
X112198Y5841I1075J-1687D01*
G01*
X132912Y5801D02*
G03*
X133155Y9307I-832J1819D01*
G01*
X131005D02*
G03*
X131248Y5801I1075J-1687D01*
G01*
X102011Y53616D02*
G03*
X106217Y53510I2129J994D01*
G01*
X102206Y55945D02*
G03*
X102011Y55604I1934J-1335D01*
G01*
X106217Y55710D02*
G03*
X106074Y55945I-2077J-1100D01*
G01*
X102011Y38376D02*
G03*
X106217Y38270I2129J994D01*
G01*
X102206Y40705D02*
G03*
X102011Y40364I1934J-1335D01*
G01*
X106217Y40470D02*
G03*
X106074Y40705I-2077J-1100D01*
G01*
X102011Y62506D02*
G03*
X106217Y62400I2129J994D01*
G01*
X102206Y64835D02*
G03*
X102011Y64494I1934J-1335D01*
G01*
X106217Y64600D02*
G03*
X106074Y64835I-2077J-1100D01*
G01*
X102011Y23136D02*
G03*
X106217Y23030I2129J994D01*
G01*
X102206Y25465D02*
G03*
X102011Y25124I1934J-1335D01*
G01*
X106217Y25230D02*
G03*
X106074Y25465I-2077J-1100D01*
G01*
X102011Y85366D02*
G03*
X106217Y85260I2129J994D01*
G01*
X102206Y87695D02*
G03*
X102011Y87354I1934J-1335D01*
G01*
X106217Y87460D02*
G03*
X106074Y87695I-2077J-1100D01*
G01*
X106269Y47984D02*
G03*
X102063Y48090I-2129J-994D01*
G01*
X106074Y45655D02*
G03*
X106269Y45996I-1934J1335D01*
G01*
X102063Y45890D02*
G03*
X102206Y45655I2077J1100D01*
G01*
X106269Y72114D02*
G03*
X102063Y72220I-2129J-994D01*
G01*
X106074Y69785D02*
G03*
X106269Y70126I-1934J1335D01*
G01*
X102063Y70020D02*
G03*
X102206Y69785I2077J1100D01*
G01*
X106269Y32744D02*
G03*
X102063Y32850I-2129J-994D01*
G01*
X106074Y30415D02*
G03*
X106269Y30756I-1934J1335D01*
G01*
X102063Y30650D02*
G03*
X102206Y30415I2077J1100D01*
G01*
X106269Y79734D02*
G03*
X102063Y79840I-2129J-994D01*
G01*
X106074Y77405D02*
G03*
X106269Y77746I-1934J1335D01*
G01*
X102063Y77640D02*
G03*
X102206Y77405I2077J1100D01*
G01*
X147896Y9307D02*
G03*
X148139Y5801I1075J-1687D01*
G01*
X149803D02*
G03*
X150046Y9307I-832J1819D01*
G01*
X135366Y7810D02*
X146066D01*
X135366Y7310D02*
X146066D01*
X135366Y12010D02*
X146066D01*
Y7310D02*
Y12010D01*
X135366Y7310D02*
Y12010D01*
X98940Y13010D02*
X109340D01*
Y8410D02*
Y13010D01*
X98940Y8410D02*
X109340D01*
X98940D02*
Y13010D01*
Y12510D02*
X109340D01*
X117990Y13010D02*
X128390D01*
Y8410D02*
Y13010D01*
X117990Y8410D02*
X128390D01*
X117990D02*
Y13010D01*
Y12510D02*
X128390D01*
X147655Y64580D02*
X150345D01*
X147655Y41420D02*
Y64580D01*
Y41420D02*
X150345D01*
Y64580D01*
X94488Y39370D02*
X95504D01*
X87376D02*
X88392D01*
Y38354D02*
X94488D01*
Y40386D01*
X88392D02*
X94488D01*
X88392Y38354D02*
Y40386D01*
X134366Y41910D02*
X135382D01*
X141478D02*
X142494D01*
X135382Y42926D02*
X141478D01*
X135382Y40894D02*
Y42926D01*
Y40894D02*
X141478D01*
Y42926D01*
X105156Y67310D02*
X106172D01*
X112268D02*
X113284D01*
X106172Y68326D02*
X112268D01*
X106172Y66294D02*
Y68326D01*
Y66294D02*
X112268D01*
Y68326D01*
X94488Y71120D02*
X95504D01*
X87376D02*
X88392D01*
Y70104D02*
X94488D01*
Y72136D01*
X88392D02*
X94488D01*
X88392Y70104D02*
Y72136D01*
X134366Y60960D02*
X135382D01*
X141478D02*
X142494D01*
X135382Y61976D02*
X141478D01*
X135382Y59944D02*
Y61976D01*
Y59944D02*
X141478D01*
Y61976D01*
X87376Y43180D02*
X88392D01*
X94488D02*
X95504D01*
X88392Y44196D02*
X94488D01*
X88392Y42164D02*
Y44196D01*
Y42164D02*
X94488D01*
Y44196D01*
Y46990D02*
X95504D01*
X87376D02*
X88392D01*
Y45974D02*
X94488D01*
Y48006D01*
X88392D02*
X94488D01*
X88392Y45974D02*
Y48006D01*
X121591Y26600D02*
X124789D01*
X121591D02*
Y36900D01*
X124789D01*
Y26600D02*
Y36900D01*
X122861Y72320D02*
X126059D01*
X122861D02*
Y82620D01*
X126059D01*
Y72320D02*
Y82620D01*
X114808Y95250D02*
X115824D01*
X107696D02*
X108712D01*
Y94234D02*
X114808D01*
Y96266D01*
X108712D02*
X114808D01*
X108712Y94234D02*
Y96266D01*
X107696Y90170D02*
X108712D01*
X114808D02*
X115824D01*
X108712Y91186D02*
X114808D01*
X108712Y89154D02*
Y91186D01*
Y89154D02*
X114808D01*
Y91186D01*
X87376Y50800D02*
X88392D01*
X94488D02*
X95504D01*
X88392Y51816D02*
X94488D01*
X88392Y49784D02*
Y51816D01*
Y49784D02*
X94488D01*
Y51816D01*
Y54610D02*
X95504D01*
X87376D02*
X88392D01*
Y53594D02*
X94488D01*
Y55626D01*
X88392D02*
X94488D01*
X88392Y53594D02*
Y55626D01*
X105156Y50800D02*
X106172D01*
X112268D02*
X113284D01*
X106172Y51816D02*
X112268D01*
X106172Y49784D02*
Y51816D01*
Y49784D02*
X112268D01*
Y51816D01*
X134366Y49530D02*
X135382D01*
X141478D02*
X142494D01*
X135382Y50546D02*
X141478D01*
X135382Y48514D02*
Y50546D01*
Y48514D02*
X141478D01*
Y50546D01*
X87376Y35560D02*
X88392D01*
X94488D02*
X95504D01*
X88392Y36576D02*
X94488D01*
X88392Y34544D02*
Y36576D01*
Y34544D02*
X94488D01*
Y36576D01*
X87376Y59690D02*
X88392D01*
X94488D02*
X95504D01*
X88392Y60706D02*
X94488D01*
X88392Y58674D02*
Y60706D01*
Y58674D02*
X94488D01*
Y60706D01*
Y63500D02*
X95504D01*
X87376D02*
X88392D01*
Y62484D02*
X94488D01*
Y64516D01*
X88392D02*
X94488D01*
X88392Y62484D02*
Y64516D01*
X105156Y35560D02*
X106172D01*
X112268D02*
X113284D01*
X106172Y36576D02*
X112268D01*
X106172Y34544D02*
Y36576D01*
Y34544D02*
X112268D01*
Y36576D01*
X105156Y58420D02*
X106172D01*
X112268D02*
X113284D01*
X106172Y59436D02*
X112268D01*
X106172Y57404D02*
Y59436D01*
Y57404D02*
X112268D01*
Y59436D01*
X134366Y57150D02*
X135382D01*
X141478D02*
X142494D01*
X135382Y58166D02*
X141478D01*
X135382Y56134D02*
Y58166D01*
Y56134D02*
X141478D01*
Y58166D01*
X134366Y64770D02*
X135382D01*
X141478D02*
X142494D01*
X135382Y65786D02*
X141478D01*
X135382Y63754D02*
Y65786D01*
Y63754D02*
X141478D01*
Y65786D01*
X87376Y20320D02*
X88392D01*
X94488D02*
X95504D01*
X88392Y21336D02*
X94488D01*
X88392Y19304D02*
Y21336D01*
Y19304D02*
X94488D01*
Y21336D01*
Y24130D02*
X95504D01*
X87376D02*
X88392D01*
Y23114D02*
X94488D01*
Y25146D01*
X88392D02*
X94488D01*
X88392Y23114D02*
Y25146D01*
X87376Y82550D02*
X88392D01*
X94488D02*
X95504D01*
X88392Y83566D02*
X94488D01*
X88392Y81534D02*
Y83566D01*
Y81534D02*
X94488D01*
Y83566D01*
Y86360D02*
X95504D01*
X87376D02*
X88392D01*
Y85344D02*
X94488D01*
Y87376D01*
X88392D02*
X94488D01*
X88392Y85344D02*
Y87376D01*
X105156Y19050D02*
X106172D01*
X112268D02*
X113284D01*
X106172Y20066D02*
X112268D01*
X106172Y18034D02*
Y20066D01*
Y18034D02*
X112268D01*
Y20066D01*
X105156Y82550D02*
X106172D01*
X112268D02*
X113284D01*
X106172Y83566D02*
X112268D01*
X106172Y81534D02*
Y83566D01*
Y81534D02*
X112268D01*
Y83566D01*
X134366Y53340D02*
X135382D01*
X141478D02*
X142494D01*
X135382Y54356D02*
X141478D01*
X135382Y52324D02*
Y54356D01*
Y52324D02*
X141478D01*
Y54356D01*
X134366Y68580D02*
X135382D01*
X141478D02*
X142494D01*
X135382Y69596D02*
X141478D01*
X135382Y67564D02*
Y69596D01*
Y67564D02*
X141478D01*
Y69596D01*
X105156Y43180D02*
X106172D01*
X112268D02*
X113284D01*
X106172Y44196D02*
X112268D01*
X106172Y42164D02*
Y44196D01*
Y42164D02*
X112268D01*
Y44196D01*
X87376Y67310D02*
X88392D01*
X94488D02*
X95504D01*
X88392Y68326D02*
X94488D01*
X88392Y66294D02*
Y68326D01*
Y66294D02*
X94488D01*
Y68326D01*
X105156Y27940D02*
X106172D01*
X112268D02*
X113284D01*
X106172Y28956D02*
X112268D01*
X106172Y26924D02*
Y28956D01*
Y26924D02*
X112268D01*
Y28956D01*
X105156Y74930D02*
X106172D01*
X112268D02*
X113284D01*
X106172Y75946D02*
X112268D01*
X106172Y73914D02*
Y75946D01*
Y73914D02*
X112268D01*
Y75946D01*
X94488Y31750D02*
X95504D01*
X87376D02*
X88392D01*
Y30734D02*
X94488D01*
Y32766D01*
X88392D02*
X94488D01*
X88392Y30734D02*
Y32766D01*
X134366Y45720D02*
X135382D01*
X141478D02*
X142494D01*
X135382Y46736D02*
X141478D01*
X135382Y44704D02*
Y46736D01*
Y44704D02*
X141478D01*
Y46736D01*
X87376Y27940D02*
X88392D01*
X94488D02*
X95504D01*
X88392Y28956D02*
X94488D01*
X88392Y26924D02*
Y28956D01*
Y26924D02*
X94488D01*
Y28956D01*
Y78740D02*
X95504D01*
X87376D02*
X88392D01*
Y77724D02*
X94488D01*
Y79756D01*
X88392D02*
X94488D01*
X88392Y77724D02*
Y79756D01*
X134366Y72390D02*
X135382D01*
X141478D02*
X142494D01*
X135382Y73406D02*
X141478D01*
X135382Y71374D02*
Y73406D01*
Y71374D02*
X141478D01*
Y73406D01*
X87376Y74930D02*
X88392D01*
X94488D02*
X95504D01*
X88392Y75946D02*
X94488D01*
X88392Y73914D02*
Y75946D01*
Y73914D02*
X94488D01*
Y75946D01*
X102206Y55945D02*
X106074D01*
X119380Y47300D02*
Y54300D01*
X124415D02*
X124460D01*
X119380D02*
X119425D01*
X124460Y47300D02*
Y54300D01*
X124415Y47300D02*
X124460D01*
X119380D02*
X119425D01*
X102206Y40705D02*
X106074D01*
X102206Y64835D02*
X106074D01*
X102206Y25465D02*
X106074D01*
X102206Y87695D02*
X106074D01*
X43060Y3370D02*
X53460D01*
X52760Y7920D02*
X53460Y3370D01*
X43060D02*
X43760Y7920D01*
X52760D01*
X76080Y3370D02*
X86480D01*
X85780Y7920D02*
X86480Y3370D01*
X76080D02*
X76780Y7920D01*
X85780D01*
X26550Y98230D02*
X36950D01*
X26550D02*
X27250Y93680D01*
X36250D02*
X36950Y98230D01*
X27250Y93680D02*
X36250D01*
X102206Y45655D02*
X106074D01*
X76780Y93680D02*
X85780D01*
X86480Y98230D01*
X76080D02*
X76780Y93680D01*
X76080Y98230D02*
X86480D01*
X27450Y8155D02*
X36050D01*
X26375Y3325D02*
X27450Y8155D01*
X26425Y3325D02*
X37075D01*
X36050Y8155D02*
X37125Y3325D01*
X60470Y8155D02*
X69070D01*
X59395Y3325D02*
X60470Y8155D01*
X59445Y3325D02*
X70095D01*
X69070Y8155D02*
X70145Y3325D01*
X102206Y69785D02*
X106074D01*
X42885Y98275D02*
X43960Y93445D01*
X42935Y98275D02*
X53585D01*
X52560Y93445D02*
X53635Y98275D01*
X43960Y93445D02*
X52560D01*
X59395Y98275D02*
X60470Y93445D01*
X59445Y98275D02*
X70095D01*
X69070Y93445D02*
X70145Y98275D01*
X60470Y93445D02*
X69070D01*
X102206Y30415D02*
X106074D01*
X102206Y77405D02*
X106074D01*
X7122Y38846D02*
X15722D01*
Y16526D02*
Y38846D01*
X7122Y16526D02*
X15722D01*
X7122D02*
Y38846D01*
X6360Y67040D02*
X14960D01*
Y44720D02*
Y67040D01*
X6360Y44720D02*
X14960D01*
X6360D02*
Y67040D01*
X14730Y72510D02*
Y82510D01*
X12255Y71910D02*
X13105D01*
X12255D02*
X12330Y72510D01*
X13030D02*
X13105Y71910D01*
X13030Y72510D02*
X14730D01*
X7230D02*
Y82510D01*
Y72510D02*
X12330D01*
X8130Y83110D02*
X9080D01*
X8130D02*
X8180Y82510D01*
X9030D02*
X9080Y83110D01*
X7230Y82510D02*
X8180D01*
X9030D02*
X14730D01*
D12*
X124289Y27350D02*
G03*
X124289Y27350I-250J0D01*
G01*
X125559Y73070D02*
G03*
X125559Y73070I-250J0D01*
G01*
D13*
X253Y1041D02*
Y102641D01*
X0Y0D02*
X152400D01*
X0D02*
Y101600D01*
X152400Y0D02*
Y101600D01*
X0D02*
X152400D01*
D14*
X69720Y62090D02*
Y63790D01*
X67220Y66290D02*
X69720Y63790D01*
X47220Y66290D02*
X67220D01*
X46120Y65190D02*
X47220Y66290D01*
X46120Y43590D02*
Y65190D01*
Y43590D02*
X48020Y41690D01*
X68620D01*
X69720Y42790D01*
Y43190D01*
Y62590D01*
X151282Y42799D02*
X151536Y43053D01*
X152044D01*
X152298Y42799D01*
Y42545D01*
X152044Y42291D01*
X151790D01*
X152044D01*
X152298Y42037D01*
Y41783D01*
X152044Y41529D01*
X151536D01*
X151282Y41783D01*
X152806Y41529D02*
Y41783D01*
X153060D01*
Y41529D01*
X152806D01*
X154076Y42799D02*
X154329Y43053D01*
X154837D01*
X155091Y42799D01*
Y42545D01*
X154837Y42291D01*
X154583D01*
X154837D01*
X155091Y42037D01*
Y41783D01*
X154837Y41529D01*
X154329D01*
X154076Y41783D01*
X155599Y43053D02*
Y42037D01*
X156107Y41529D01*
X156615Y42037D01*
Y43053D01*
X151282Y48133D02*
Y47117D01*
X151790Y46609D01*
X152298Y47117D01*
Y48133D01*
X152806D02*
Y46609D01*
X153568D01*
X153822Y46863D01*
Y47117D01*
X153568Y47371D01*
X152806D01*
X153568D01*
X153822Y47625D01*
Y47879D01*
X153568Y48133D01*
X152806D01*
X154329D02*
X155345D01*
X154837D01*
Y46609D01*
X151282Y49149D02*
Y50673D01*
X152044D01*
X152298Y50419D01*
Y49911D01*
X152044Y49657D01*
X151282D01*
X151790D02*
X152298Y49149D01*
X153822Y50673D02*
X152806D01*
Y49149D01*
X153822D01*
X152806Y49911D02*
X153314D01*
X154329Y50673D02*
Y49149D01*
X155345D01*
X151282Y53213D02*
Y51689D01*
X152044D01*
X152298Y51943D01*
Y52959D01*
X152044Y53213D01*
X151282D01*
X152806Y51689D02*
X153314D01*
X153060D01*
Y53213D01*
X152806Y52959D01*
X155091Y53213D02*
X154076D01*
Y52451D01*
X154583D01*
X154076D01*
Y51689D01*
X151282Y55753D02*
Y54229D01*
X152044D01*
X152298Y54483D01*
Y55499D01*
X152044Y55753D01*
X151282D01*
X152806Y54229D02*
X153314D01*
X153060D01*
Y55753D01*
X152806Y55499D01*
X154076Y55753D02*
Y54229D01*
X154837D01*
X155091Y54483D01*
Y54737D01*
X154837Y54991D01*
X154076D01*
X154837D01*
X155091Y55245D01*
Y55499D01*
X154837Y55753D01*
X154076D01*
X151282Y58293D02*
Y56769D01*
X152044D01*
X152298Y57023D01*
Y58039D01*
X152044Y58293D01*
X151282D01*
X153822Y56769D02*
X152806D01*
X153822Y57785D01*
Y58039D01*
X153568Y58293D01*
X153060D01*
X152806Y58039D01*
X155345Y58293D02*
X154329D01*
Y57531D01*
X154837D01*
X154329D01*
Y56769D01*
X151282Y60833D02*
Y59309D01*
X152044D01*
X152298Y59563D01*
Y60579D01*
X152044Y60833D01*
X151282D01*
X153822Y59309D02*
X152806D01*
X153822Y60325D01*
Y60579D01*
X153568Y60833D01*
X153060D01*
X152806Y60579D01*
X154329Y60833D02*
Y59309D01*
X155091D01*
X155345Y59563D01*
Y59817D01*
X155091Y60071D01*
X154329D01*
X155091D01*
X155345Y60325D01*
Y60579D01*
X155091Y60833D01*
X154329D01*
X152298Y63754D02*
X152044Y64008D01*
X151536D01*
X151282Y63754D01*
Y62738D01*
X151536Y62484D01*
X152044D01*
X152298Y62738D01*
Y63246D01*
X151790D01*
X152806Y62484D02*
Y64008D01*
X153822Y62484D01*
Y64008D01*
X154329D02*
Y62484D01*
X155091D01*
X155345Y62738D01*
Y63754D01*
X155091Y64008D01*
X154329D01*
X152336Y45512D02*
X151320D01*
Y44750D01*
X151828Y45004D01*
X152082D01*
X152336Y44750D01*
Y44242D01*
X152082Y43988D01*
X151574D01*
X151320Y44242D01*
X152843Y45512D02*
Y44496D01*
X153351Y43988D01*
X153859Y44496D01*
Y45512D01*
X1067Y21285D02*
X2082D01*
X1575D01*
Y19761D01*
X2590D02*
Y21285D01*
X3352D01*
X3606Y21031D01*
Y20523D01*
X3352Y20269D01*
X2590D01*
X3098D02*
X3606Y19761D01*
X5129D02*
X4114D01*
X5129Y20777D01*
Y21031D01*
X4876Y21285D01*
X4368D01*
X4114Y21031D01*
X5637Y21285D02*
Y20269D01*
X6145Y19761D01*
X6653Y20269D01*
Y21285D01*
X1067Y26365D02*
X2082D01*
X1575D01*
Y24841D01*
X2590D02*
Y26365D01*
X3352D01*
X3606Y26111D01*
Y25603D01*
X3352Y25349D01*
X2590D01*
X3098D02*
X3606Y24841D01*
X4114D02*
X4622D01*
X4368D01*
Y26365D01*
X4114Y26111D01*
X6399D02*
X6145Y26365D01*
X5637D01*
X5383Y26111D01*
Y25095D01*
X5637Y24841D01*
X6145D01*
X6399Y25095D01*
Y25603D01*
X5891D01*
X1067Y31445D02*
X2082D01*
X1575D01*
Y29921D01*
X2590D02*
Y31445D01*
X3352D01*
X3606Y31191D01*
Y30683D01*
X3352Y30429D01*
X2590D01*
X3098D02*
X3606Y29921D01*
X5129D02*
X4114D01*
X5129Y30937D01*
Y31191D01*
X4876Y31445D01*
X4368D01*
X4114Y31191D01*
X5637Y31445D02*
Y30429D01*
X6145Y29921D01*
X6653Y30429D01*
Y31445D01*
X1067Y36525D02*
X2082D01*
X1575D01*
Y35001D01*
X2590D02*
Y36525D01*
X3352D01*
X3606Y36271D01*
Y35763D01*
X3352Y35509D01*
X2590D01*
X3098D02*
X3606Y35001D01*
X5129D02*
X4114D01*
X5129Y36017D01*
Y36271D01*
X4876Y36525D01*
X4368D01*
X4114Y36271D01*
X6653D02*
X6399Y36525D01*
X5891D01*
X5637Y36271D01*
Y35255D01*
X5891Y35001D01*
X6399D01*
X6653Y35255D01*
Y35763D01*
X6145D01*
X1067Y47955D02*
Y49479D01*
X1575Y48971D01*
X2082Y49479D01*
Y47955D01*
X2590D02*
X3098D01*
X2844D01*
Y49479D01*
X2590Y49225D01*
X3860Y47701D02*
X4876D01*
X5383Y47955D02*
X5891D01*
X5637D01*
Y49479D01*
X5383Y49225D01*
X1067Y53035D02*
Y54559D01*
X1575Y54051D01*
X2082Y54559D01*
Y53035D01*
X2590D02*
X3098D01*
X2844D01*
Y54559D01*
X2590Y54305D01*
X3860Y52781D02*
X4876D01*
X6399Y53035D02*
X5383D01*
X6399Y54051D01*
Y54305D01*
X6145Y54559D01*
X5637D01*
X5383Y54305D01*
X1067Y57480D02*
Y59004D01*
X1575Y58496D01*
X2082Y59004D01*
Y57480D01*
X3606D02*
X2590D01*
X3606Y58496D01*
Y58750D01*
X3352Y59004D01*
X2844D01*
X2590Y58750D01*
X4114Y57226D02*
X5129D01*
X6653Y57480D02*
X5637D01*
X6653Y58496D01*
Y58750D01*
X6399Y59004D01*
X5891D01*
X5637Y58750D01*
X1067Y63195D02*
Y64719D01*
X1575Y64211D01*
X2082Y64719D01*
Y63195D01*
X3606D02*
X2590D01*
X3606Y64211D01*
Y64465D01*
X3352Y64719D01*
X2844D01*
X2590Y64465D01*
X4114Y62941D02*
X5129D01*
X5637Y63195D02*
X6145D01*
X5891D01*
Y64719D01*
X5637Y64465D01*
X1270Y80010D02*
X2286D01*
X1397Y75209D02*
X2413D01*
X1905Y75717D02*
Y74701D01*
X135534Y15239D02*
Y13969D01*
X135788Y13715D01*
X136295D01*
X136549Y13969D01*
Y15239D01*
X137057Y13715D02*
X137565D01*
X137311D01*
Y15239D01*
X137057Y14985D01*
X118185Y15453D02*
Y14183D01*
X118439Y13929D01*
X118947D01*
X119201Y14183D01*
Y15453D01*
X119709Y15199D02*
X119963Y15453D01*
X120471D01*
X120725Y15199D01*
Y14945D01*
X120471Y14691D01*
X120217D01*
X120471D01*
X120725Y14437D01*
Y14183D01*
X120471Y13929D01*
X119963D01*
X119709Y14183D01*
X99135Y15442D02*
Y14172D01*
X99389Y13918D01*
X99897D01*
X100151Y14172D01*
Y15442D01*
X101675Y13918D02*
X100659D01*
X101675Y14934D01*
Y15188D01*
X101421Y15442D01*
X100913D01*
X100659Y15188D01*
X118693Y39826D02*
Y38556D01*
X118947Y38302D01*
X119455D01*
X119709Y38556D01*
Y39826D01*
X121233D02*
X120725Y39572D01*
X120217Y39064D01*
Y38556D01*
X120471Y38302D01*
X120979D01*
X121233Y38556D01*
Y38810D01*
X120979Y39064D01*
X120217D01*
X119963Y85546D02*
Y84276D01*
X120217Y84022D01*
X120725D01*
X120979Y84276D01*
Y85546D01*
X122503D02*
X121487D01*
Y84784D01*
X121995Y85038D01*
X122249D01*
X122503Y84784D01*
Y84276D01*
X122249Y84022D01*
X121741D01*
X121487Y84276D01*
X46303Y68757D02*
Y67487D01*
X46557Y67233D01*
X47065D01*
X47319Y67487D01*
Y68757D01*
X48589Y67233D02*
Y68757D01*
X47827Y67995D01*
X48843D01*
X106171Y97180D02*
Y98703D01*
X106933D01*
X107187Y98449D01*
Y97941D01*
X106933Y97687D01*
X106171D01*
X106679D02*
X107187Y97180D01*
X107695Y98449D02*
X107949Y98703D01*
X108456D01*
X108710Y98449D01*
Y98195D01*
X108456Y97941D01*
X108203D01*
X108456D01*
X108710Y97687D01*
Y97434D01*
X108456Y97180D01*
X107949D01*
X107695Y97434D01*
X109218Y98449D02*
X109472Y98703D01*
X109980D01*
X110234Y98449D01*
Y98195D01*
X109980Y97941D01*
X110234Y97687D01*
Y97434D01*
X109980Y97180D01*
X109472D01*
X109218Y97434D01*
Y97687D01*
X109472Y97941D01*
X109218Y98195D01*
Y98449D01*
X109472Y97941D02*
X109980D01*
X106171Y92100D02*
Y93623D01*
X106933D01*
X107187Y93369D01*
Y92861D01*
X106933Y92607D01*
X106171D01*
X106679D02*
X107187Y92100D01*
X107695Y93369D02*
X107949Y93623D01*
X108456D01*
X108710Y93369D01*
Y93115D01*
X108456Y92861D01*
X108203D01*
X108456D01*
X108710Y92607D01*
Y92354D01*
X108456Y92100D01*
X107949D01*
X107695Y92354D01*
X109218Y93623D02*
X110234D01*
Y93369D01*
X109218Y92354D01*
Y92100D01*
X85851Y52730D02*
Y54253D01*
X86613D01*
X86867Y53999D01*
Y53491D01*
X86613Y53237D01*
X85851D01*
X86359D02*
X86867Y52730D01*
X87375Y53999D02*
X87629Y54253D01*
X88136D01*
X88390Y53999D01*
Y53745D01*
X88136Y53491D01*
X87883D01*
X88136D01*
X88390Y53237D01*
Y52984D01*
X88136Y52730D01*
X87629D01*
X87375Y52984D01*
X89914Y54253D02*
X89406Y53999D01*
X88898Y53491D01*
Y52984D01*
X89152Y52730D01*
X89660D01*
X89914Y52984D01*
Y53237D01*
X89660Y53491D01*
X88898D01*
X85851Y56540D02*
Y58063D01*
X86613D01*
X86867Y57809D01*
Y57301D01*
X86613Y57047D01*
X85851D01*
X86359D02*
X86867Y56540D01*
X87375Y57809D02*
X87629Y58063D01*
X88136D01*
X88390Y57809D01*
Y57555D01*
X88136Y57301D01*
X87883D01*
X88136D01*
X88390Y57047D01*
Y56794D01*
X88136Y56540D01*
X87629D01*
X87375Y56794D01*
X89914Y58063D02*
X88898D01*
Y57301D01*
X89406Y57555D01*
X89660D01*
X89914Y57301D01*
Y56794D01*
X89660Y56540D01*
X89152D01*
X88898Y56794D01*
X103631Y52730D02*
Y54253D01*
X104393D01*
X104647Y53999D01*
Y53491D01*
X104393Y53237D01*
X103631D01*
X104139D02*
X104647Y52730D01*
X105155Y53999D02*
X105409Y54253D01*
X105916D01*
X106170Y53999D01*
Y53745D01*
X105916Y53491D01*
X105663D01*
X105916D01*
X106170Y53237D01*
Y52984D01*
X105916Y52730D01*
X105409D01*
X105155Y52984D01*
X107440Y52730D02*
Y54253D01*
X106678Y53491D01*
X107694D01*
X132841Y51460D02*
Y52983D01*
X133603D01*
X133857Y52729D01*
Y52221D01*
X133603Y51967D01*
X132841D01*
X133349D02*
X133857Y51460D01*
X134365Y52729D02*
X134619Y52983D01*
X135126D01*
X135380Y52729D01*
Y52475D01*
X135126Y52221D01*
X134873D01*
X135126D01*
X135380Y51967D01*
Y51714D01*
X135126Y51460D01*
X134619D01*
X134365Y51714D01*
X135888Y52729D02*
X136142Y52983D01*
X136650D01*
X136904Y52729D01*
Y52475D01*
X136650Y52221D01*
X136396D01*
X136650D01*
X136904Y51967D01*
Y51714D01*
X136650Y51460D01*
X136142D01*
X135888Y51714D01*
X85851Y37490D02*
Y39013D01*
X86613D01*
X86867Y38759D01*
Y38251D01*
X86613Y37997D01*
X85851D01*
X86359D02*
X86867Y37490D01*
X87375Y38759D02*
X87629Y39013D01*
X88136D01*
X88390Y38759D01*
Y38505D01*
X88136Y38251D01*
X87883D01*
X88136D01*
X88390Y37997D01*
Y37744D01*
X88136Y37490D01*
X87629D01*
X87375Y37744D01*
X89914Y37490D02*
X88898D01*
X89914Y38505D01*
Y38759D01*
X89660Y39013D01*
X89152D01*
X88898Y38759D01*
X85851Y41300D02*
Y42823D01*
X86613D01*
X86867Y42569D01*
Y42061D01*
X86613Y41807D01*
X85851D01*
X86359D02*
X86867Y41300D01*
X87375Y42569D02*
X87629Y42823D01*
X88136D01*
X88390Y42569D01*
Y42315D01*
X88136Y42061D01*
X87883D01*
X88136D01*
X88390Y41807D01*
Y41554D01*
X88136Y41300D01*
X87629D01*
X87375Y41554D01*
X88898Y41300D02*
X89406D01*
X89152D01*
Y42823D01*
X88898Y42569D01*
X85851Y61620D02*
Y63143D01*
X86613D01*
X86867Y62889D01*
Y62381D01*
X86613Y62127D01*
X85851D01*
X86359D02*
X86867Y61620D01*
X87375Y62889D02*
X87629Y63143D01*
X88136D01*
X88390Y62889D01*
Y62635D01*
X88136Y62381D01*
X87883D01*
X88136D01*
X88390Y62127D01*
Y61874D01*
X88136Y61620D01*
X87629D01*
X87375Y61874D01*
X88898Y62889D02*
X89152Y63143D01*
X89660D01*
X89914Y62889D01*
Y61874D01*
X89660Y61620D01*
X89152D01*
X88898Y61874D01*
Y62889D01*
X85851Y65430D02*
Y66953D01*
X86613D01*
X86867Y66699D01*
Y66191D01*
X86613Y65937D01*
X85851D01*
X86359D02*
X86867Y65430D01*
X88390D02*
X87375D01*
X88390Y66445D01*
Y66699D01*
X88136Y66953D01*
X87629D01*
X87375Y66699D01*
X88898Y65684D02*
X89152Y65430D01*
X89660D01*
X89914Y65684D01*
Y66699D01*
X89660Y66953D01*
X89152D01*
X88898Y66699D01*
Y66445D01*
X89152Y66191D01*
X89914D01*
X103631Y37490D02*
Y39013D01*
X104393D01*
X104647Y38759D01*
Y38251D01*
X104393Y37997D01*
X103631D01*
X104139D02*
X104647Y37490D01*
X106170D02*
X105155D01*
X106170Y38505D01*
Y38759D01*
X105916Y39013D01*
X105409D01*
X105155Y38759D01*
X106678D02*
X106932Y39013D01*
X107440D01*
X107694Y38759D01*
Y38505D01*
X107440Y38251D01*
X107694Y37997D01*
Y37744D01*
X107440Y37490D01*
X106932D01*
X106678Y37744D01*
Y37997D01*
X106932Y38251D01*
X106678Y38505D01*
Y38759D01*
X106932Y38251D02*
X107440D01*
X103631Y60350D02*
Y61873D01*
X104393D01*
X104647Y61619D01*
Y61111D01*
X104393Y60857D01*
X103631D01*
X104139D02*
X104647Y60350D01*
X106170D02*
X105155D01*
X106170Y61365D01*
Y61619D01*
X105916Y61873D01*
X105409D01*
X105155Y61619D01*
X106678Y61873D02*
X107694D01*
Y61619D01*
X106678Y60604D01*
Y60350D01*
X132841Y59080D02*
Y60603D01*
X133603D01*
X133857Y60349D01*
Y59841D01*
X133603Y59587D01*
X132841D01*
X133349D02*
X133857Y59080D01*
X135380D02*
X134365D01*
X135380Y60095D01*
Y60349D01*
X135126Y60603D01*
X134619D01*
X134365Y60349D01*
X136904Y60603D02*
X136396Y60349D01*
X135888Y59841D01*
Y59334D01*
X136142Y59080D01*
X136650D01*
X136904Y59334D01*
Y59587D01*
X136650Y59841D01*
X135888D01*
X132841Y66700D02*
Y68223D01*
X133603D01*
X133857Y67969D01*
Y67461D01*
X133603Y67207D01*
X132841D01*
X133349D02*
X133857Y66700D01*
X135380D02*
X134365D01*
X135380Y67715D01*
Y67969D01*
X135126Y68223D01*
X134619D01*
X134365Y67969D01*
X136904Y68223D02*
X135888D01*
Y67461D01*
X136396Y67715D01*
X136650D01*
X136904Y67461D01*
Y66954D01*
X136650Y66700D01*
X136142D01*
X135888Y66954D01*
X85851Y22250D02*
Y23773D01*
X86613D01*
X86867Y23519D01*
Y23011D01*
X86613Y22757D01*
X85851D01*
X86359D02*
X86867Y22250D01*
X88390D02*
X87375D01*
X88390Y23265D01*
Y23519D01*
X88136Y23773D01*
X87629D01*
X87375Y23519D01*
X89660Y22250D02*
Y23773D01*
X88898Y23011D01*
X89914D01*
X85851Y26060D02*
Y27583D01*
X86613D01*
X86867Y27329D01*
Y26821D01*
X86613Y26567D01*
X85851D01*
X86359D02*
X86867Y26060D01*
X88390D02*
X87375D01*
X88390Y27075D01*
Y27329D01*
X88136Y27583D01*
X87629D01*
X87375Y27329D01*
X88898D02*
X89152Y27583D01*
X89660D01*
X89914Y27329D01*
Y27075D01*
X89660Y26821D01*
X89406D01*
X89660D01*
X89914Y26567D01*
Y26314D01*
X89660Y26060D01*
X89152D01*
X88898Y26314D01*
X85851Y84480D02*
Y86003D01*
X86613D01*
X86867Y85749D01*
Y85241D01*
X86613Y84987D01*
X85851D01*
X86359D02*
X86867Y84480D01*
X88390D02*
X87375D01*
X88390Y85495D01*
Y85749D01*
X88136Y86003D01*
X87629D01*
X87375Y85749D01*
X89914Y84480D02*
X88898D01*
X89914Y85495D01*
Y85749D01*
X89660Y86003D01*
X89152D01*
X88898Y85749D01*
X85851Y88290D02*
Y89813D01*
X86613D01*
X86867Y89559D01*
Y89051D01*
X86613Y88797D01*
X85851D01*
X86359D02*
X86867Y88290D01*
X88390D02*
X87375D01*
X88390Y89305D01*
Y89559D01*
X88136Y89813D01*
X87629D01*
X87375Y89559D01*
X88898Y88290D02*
X89406D01*
X89152D01*
Y89813D01*
X88898Y89559D01*
X103631Y20980D02*
Y22503D01*
X104393D01*
X104647Y22249D01*
Y21741D01*
X104393Y21487D01*
X103631D01*
X104139D02*
X104647Y20980D01*
X106170D02*
X105155D01*
X106170Y21995D01*
Y22249D01*
X105916Y22503D01*
X105409D01*
X105155Y22249D01*
X106678D02*
X106932Y22503D01*
X107440D01*
X107694Y22249D01*
Y21234D01*
X107440Y20980D01*
X106932D01*
X106678Y21234D01*
Y22249D01*
X103631Y84480D02*
Y86003D01*
X104393D01*
X104647Y85749D01*
Y85241D01*
X104393Y84987D01*
X103631D01*
X104139D02*
X104647Y84480D01*
X105155D02*
X105663D01*
X105409D01*
Y86003D01*
X105155Y85749D01*
X106424Y84734D02*
X106678Y84480D01*
X107186D01*
X107440Y84734D01*
Y85749D01*
X107186Y86003D01*
X106678D01*
X106424Y85749D01*
Y85495D01*
X106678Y85241D01*
X107440D01*
X132841Y55270D02*
Y56793D01*
X133603D01*
X133857Y56539D01*
Y56031D01*
X133603Y55777D01*
X132841D01*
X133349D02*
X133857Y55270D01*
X134365D02*
X134873D01*
X134619D01*
Y56793D01*
X134365Y56539D01*
X135634D02*
X135888Y56793D01*
X136396D01*
X136650Y56539D01*
Y56285D01*
X136396Y56031D01*
X136650Y55777D01*
Y55524D01*
X136396Y55270D01*
X135888D01*
X135634Y55524D01*
Y55777D01*
X135888Y56031D01*
X135634Y56285D01*
Y56539D01*
X135888Y56031D02*
X136396D01*
X132841Y70510D02*
Y72033D01*
X133603D01*
X133857Y71779D01*
Y71271D01*
X133603Y71017D01*
X132841D01*
X133349D02*
X133857Y70510D01*
X134365D02*
X134873D01*
X134619D01*
Y72033D01*
X134365Y71779D01*
X135634Y72033D02*
X136650D01*
Y71779D01*
X135634Y70764D01*
Y70510D01*
X103631Y45110D02*
Y46633D01*
X104393D01*
X104647Y46379D01*
Y45871D01*
X104393Y45617D01*
X103631D01*
X104139D02*
X104647Y45110D01*
X105155D02*
X105663D01*
X105409D01*
Y46633D01*
X105155Y46379D01*
X107440Y46633D02*
X106932Y46379D01*
X106424Y45871D01*
Y45364D01*
X106678Y45110D01*
X107186D01*
X107440Y45364D01*
Y45617D01*
X107186Y45871D01*
X106424D01*
X103631Y69240D02*
Y70763D01*
X104393D01*
X104647Y70509D01*
Y70001D01*
X104393Y69747D01*
X103631D01*
X104139D02*
X104647Y69240D01*
X105155D02*
X105663D01*
X105409D01*
Y70763D01*
X105155Y70509D01*
X107440Y70763D02*
X106424D01*
Y70001D01*
X106932Y70255D01*
X107186D01*
X107440Y70001D01*
Y69494D01*
X107186Y69240D01*
X106678D01*
X106424Y69494D01*
X85851Y48920D02*
Y50443D01*
X86613D01*
X86867Y50189D01*
Y49681D01*
X86613Y49427D01*
X85851D01*
X86359D02*
X86867Y48920D01*
X87375D02*
X87883D01*
X87629D01*
Y50443D01*
X87375Y50189D01*
X89406Y48920D02*
Y50443D01*
X88644Y49681D01*
X89660D01*
X132841Y43840D02*
Y45363D01*
X133603D01*
X133857Y45109D01*
Y44601D01*
X133603Y44347D01*
X132841D01*
X133349D02*
X133857Y43840D01*
X134365D02*
X134873D01*
X134619D01*
Y45363D01*
X134365Y45109D01*
X135634D02*
X135888Y45363D01*
X136396D01*
X136650Y45109D01*
Y44855D01*
X136396Y44601D01*
X136142D01*
X136396D01*
X136650Y44347D01*
Y44094D01*
X136396Y43840D01*
X135888D01*
X135634Y44094D01*
X85851Y45110D02*
Y46633D01*
X86613D01*
X86867Y46379D01*
Y45871D01*
X86613Y45617D01*
X85851D01*
X86359D02*
X86867Y45110D01*
X87375D02*
X87883D01*
X87629D01*
Y46633D01*
X87375Y46379D01*
X89660Y45110D02*
X88644D01*
X89660Y46125D01*
Y46379D01*
X89406Y46633D01*
X88898D01*
X88644Y46379D01*
X85851Y73050D02*
Y74573D01*
X86613D01*
X86867Y74319D01*
Y73811D01*
X86613Y73557D01*
X85851D01*
X86359D02*
X86867Y73050D01*
X87375D02*
X87883D01*
X87629D01*
Y74573D01*
X87375Y74319D01*
X88644Y73050D02*
X89152D01*
X88898D01*
Y74573D01*
X88644Y74319D01*
X132841Y62890D02*
Y64413D01*
X133603D01*
X133857Y64159D01*
Y63651D01*
X133603Y63397D01*
X132841D01*
X133349D02*
X133857Y62890D01*
X134365D02*
X134873D01*
X134619D01*
Y64413D01*
X134365Y64159D01*
X135634D02*
X135888Y64413D01*
X136396D01*
X136650Y64159D01*
Y63144D01*
X136396Y62890D01*
X135888D01*
X135634Y63144D01*
Y64159D01*
X85851Y69240D02*
Y70763D01*
X86613D01*
X86867Y70509D01*
Y70001D01*
X86613Y69747D01*
X85851D01*
X86359D02*
X86867Y69240D01*
X87375Y69494D02*
X87629Y69240D01*
X88136D01*
X88390Y69494D01*
Y70509D01*
X88136Y70763D01*
X87629D01*
X87375Y70509D01*
Y70255D01*
X87629Y70001D01*
X88390D01*
X103631Y29870D02*
Y31393D01*
X104393D01*
X104647Y31139D01*
Y30631D01*
X104393Y30377D01*
X103631D01*
X104139D02*
X104647Y29870D01*
X105155Y31139D02*
X105409Y31393D01*
X105916D01*
X106170Y31139D01*
Y30885D01*
X105916Y30631D01*
X106170Y30377D01*
Y30124D01*
X105916Y29870D01*
X105409D01*
X105155Y30124D01*
Y30377D01*
X105409Y30631D01*
X105155Y30885D01*
Y31139D01*
X105409Y30631D02*
X105916D01*
X103631Y76860D02*
Y78383D01*
X104393D01*
X104647Y78129D01*
Y77621D01*
X104393Y77367D01*
X103631D01*
X104139D02*
X104647Y76860D01*
X105155Y78383D02*
X106170D01*
Y78129D01*
X105155Y77114D01*
Y76860D01*
X85851Y33680D02*
Y35203D01*
X86613D01*
X86867Y34949D01*
Y34441D01*
X86613Y34187D01*
X85851D01*
X86359D02*
X86867Y33680D01*
X88390Y35203D02*
X87883Y34949D01*
X87375Y34441D01*
Y33934D01*
X87629Y33680D01*
X88136D01*
X88390Y33934D01*
Y34187D01*
X88136Y34441D01*
X87375D01*
X132841Y47650D02*
Y49173D01*
X133603D01*
X133857Y48919D01*
Y48411D01*
X133603Y48157D01*
X132841D01*
X133349D02*
X133857Y47650D01*
X135380Y49173D02*
X134365D01*
Y48411D01*
X134873Y48665D01*
X135126D01*
X135380Y48411D01*
Y47904D01*
X135126Y47650D01*
X134619D01*
X134365Y47904D01*
X85851Y29870D02*
Y31393D01*
X86613D01*
X86867Y31139D01*
Y30631D01*
X86613Y30377D01*
X85851D01*
X86359D02*
X86867Y29870D01*
X88136D02*
Y31393D01*
X87375Y30631D01*
X88390D01*
X85851Y80670D02*
Y82193D01*
X86613D01*
X86867Y81939D01*
Y81431D01*
X86613Y81177D01*
X85851D01*
X86359D02*
X86867Y80670D01*
X87375Y81939D02*
X87629Y82193D01*
X88136D01*
X88390Y81939D01*
Y81685D01*
X88136Y81431D01*
X87883D01*
X88136D01*
X88390Y81177D01*
Y80924D01*
X88136Y80670D01*
X87629D01*
X87375Y80924D01*
X132841Y74320D02*
Y75843D01*
X133603D01*
X133857Y75589D01*
Y75081D01*
X133603Y74827D01*
X132841D01*
X133349D02*
X133857Y74320D01*
X135380D02*
X134365D01*
X135380Y75335D01*
Y75589D01*
X135126Y75843D01*
X134619D01*
X134365Y75589D01*
X85851Y76860D02*
Y78383D01*
X86613D01*
X86867Y78129D01*
Y77621D01*
X86613Y77367D01*
X85851D01*
X86359D02*
X86867Y76860D01*
X87375D02*
X87883D01*
X87629D01*
Y78383D01*
X87375Y78129D01*
X102031Y57124D02*
Y58139D01*
X101777Y58393D01*
X101269D01*
X101015Y58139D01*
Y57124D01*
X101269Y56870D01*
X101777D01*
X101523Y57378D02*
X102031Y56870D01*
X101777D02*
X102031Y57124D01*
X103554Y56870D02*
X102539D01*
X103554Y57885D01*
Y58139D01*
X103300Y58393D01*
X102792D01*
X102539Y58139D01*
X105078Y58393D02*
X104570Y58139D01*
X104062Y57632D01*
Y57124D01*
X104316Y56870D01*
X104824D01*
X105078Y57124D01*
Y57378D01*
X104824Y57632D01*
X104062D01*
X120496Y57276D02*
Y58292D01*
X120243Y58546D01*
X119735D01*
X119481Y58292D01*
Y57276D01*
X119735Y57022D01*
X120243D01*
X119989Y57530D02*
X120496Y57022D01*
X120243D02*
X120496Y57276D01*
X122020Y57022D02*
X121004D01*
X122020Y58038D01*
Y58292D01*
X121766Y58546D01*
X121258D01*
X121004Y58292D01*
X123543Y58546D02*
X122528D01*
Y57784D01*
X123036Y58038D01*
X123290D01*
X123543Y57784D01*
Y57276D01*
X123290Y57022D01*
X122782D01*
X122528Y57276D01*
X102031Y41884D02*
Y42899D01*
X101777Y43153D01*
X101269D01*
X101015Y42899D01*
Y41884D01*
X101269Y41630D01*
X101777D01*
X101523Y42138D02*
X102031Y41630D01*
X101777D02*
X102031Y41884D01*
X103554Y41630D02*
X102539D01*
X103554Y42645D01*
Y42899D01*
X103300Y43153D01*
X102792D01*
X102539Y42899D01*
X104824Y41630D02*
Y43153D01*
X104062Y42392D01*
X105078D01*
X102031Y66014D02*
Y67029D01*
X101777Y67283D01*
X101269D01*
X101015Y67029D01*
Y66014D01*
X101269Y65760D01*
X101777D01*
X101523Y66268D02*
X102031Y65760D01*
X101777D02*
X102031Y66014D01*
X103554Y65760D02*
X102539D01*
X103554Y66775D01*
Y67029D01*
X103300Y67283D01*
X102792D01*
X102539Y67029D01*
X104062D02*
X104316Y67283D01*
X104824D01*
X105078Y67029D01*
Y66775D01*
X104824Y66522D01*
X104570D01*
X104824D01*
X105078Y66268D01*
Y66014D01*
X104824Y65760D01*
X104316D01*
X104062Y66014D01*
X102031Y26644D02*
Y27659D01*
X101777Y27913D01*
X101269D01*
X101015Y27659D01*
Y26644D01*
X101269Y26390D01*
X101777D01*
X101523Y26898D02*
X102031Y26390D01*
X101777D02*
X102031Y26644D01*
X103554Y26390D02*
X102539D01*
X103554Y27405D01*
Y27659D01*
X103300Y27913D01*
X102792D01*
X102539Y27659D01*
X104062D02*
X104316Y27913D01*
X104824D01*
X105078Y27659D01*
Y26644D01*
X104824Y26390D01*
X104316D01*
X104062Y26644D01*
Y27659D01*
X102031Y88874D02*
Y89889D01*
X101777Y90143D01*
X101269D01*
X101015Y89889D01*
Y88874D01*
X101269Y88620D01*
X101777D01*
X101523Y89128D02*
X102031Y88620D01*
X101777D02*
X102031Y88874D01*
X102539Y88620D02*
X103046D01*
X102792D01*
Y90143D01*
X102539Y89889D01*
X103808Y88874D02*
X104062Y88620D01*
X104570D01*
X104824Y88874D01*
Y89889D01*
X104570Y90143D01*
X104062D01*
X103808Y89889D01*
Y89635D01*
X104062Y89382D01*
X104824D01*
X43941Y9194D02*
Y10210D01*
X43687Y10464D01*
X43179D01*
X42925Y10210D01*
Y9194D01*
X43179Y8940D01*
X43687D01*
X43433Y9448D02*
X43941Y8940D01*
X43687D02*
X43941Y9194D01*
X44449Y8940D02*
X44957D01*
X44703D01*
Y10464D01*
X44449Y10210D01*
X46734Y10464D02*
X46226Y10210D01*
X45718Y9702D01*
Y9194D01*
X45972Y8940D01*
X46480D01*
X46734Y9194D01*
Y9448D01*
X46480Y9702D01*
X45718D01*
X76961Y9194D02*
Y10210D01*
X76707Y10464D01*
X76199D01*
X75945Y10210D01*
Y9194D01*
X76199Y8940D01*
X76707D01*
X76453Y9448D02*
X76961Y8940D01*
X76707D02*
X76961Y9194D01*
X77469Y8940D02*
X77977D01*
X77723D01*
Y10464D01*
X77469Y10210D01*
X79754Y10464D02*
X78738D01*
Y9702D01*
X79246Y9956D01*
X79500D01*
X79754Y9702D01*
Y9194D01*
X79500Y8940D01*
X78992D01*
X78738Y9194D01*
X26847Y99491D02*
Y100507D01*
X26593Y100761D01*
X26085D01*
X25831Y100507D01*
Y99491D01*
X26085Y99237D01*
X26593D01*
X26339Y99745D02*
X26847Y99237D01*
X26593D02*
X26847Y99491D01*
X27355Y99237D02*
X27862D01*
X27608D01*
Y100761D01*
X27355Y100507D01*
X29386Y99237D02*
Y100761D01*
X28624Y99999D01*
X29640D01*
X101370Y50520D02*
Y51535D01*
X101116Y51789D01*
X100609D01*
X100355Y51535D01*
Y50520D01*
X100609Y50266D01*
X101116D01*
X100862Y50774D02*
X101370Y50266D01*
X101116D02*
X101370Y50520D01*
X101878Y50266D02*
X102386D01*
X102132D01*
Y51789D01*
X101878Y51535D01*
X103148D02*
X103402Y51789D01*
X103909D01*
X104163Y51535D01*
Y51281D01*
X103909Y51028D01*
X103656D01*
X103909D01*
X104163Y50774D01*
Y50520D01*
X103909Y50266D01*
X103402D01*
X103148Y50520D01*
X76377Y99491D02*
Y100507D01*
X76123Y100761D01*
X75615D01*
X75361Y100507D01*
Y99491D01*
X75615Y99237D01*
X76123D01*
X75869Y99745D02*
X76377Y99237D01*
X76123D02*
X76377Y99491D01*
X76885Y99237D02*
X77392D01*
X77138D01*
Y100761D01*
X76885Y100507D01*
X79170Y99237D02*
X78154D01*
X79170Y100253D01*
Y100507D01*
X78916Y100761D01*
X78408D01*
X78154Y100507D01*
X27507Y10032D02*
Y11048D01*
X27253Y11302D01*
X26745D01*
X26491Y11048D01*
Y10032D01*
X26745Y9778D01*
X27253D01*
X26999Y10286D02*
X27507Y9778D01*
X27253D02*
X27507Y10032D01*
X28015Y9778D02*
X28523D01*
X28269D01*
Y11302D01*
X28015Y11048D01*
X29285Y9778D02*
X29792D01*
X29538D01*
Y11302D01*
X29285Y11048D01*
X60527Y10032D02*
Y11048D01*
X60273Y11302D01*
X59765D01*
X59511Y11048D01*
Y10032D01*
X59765Y9778D01*
X60273D01*
X60019Y10286D02*
X60527Y9778D01*
X60273D02*
X60527Y10032D01*
X61035Y9778D02*
X61543D01*
X61289D01*
Y11302D01*
X61035Y11048D01*
X62305D02*
X62558Y11302D01*
X63066D01*
X63320Y11048D01*
Y10032D01*
X63066Y9778D01*
X62558D01*
X62305Y10032D01*
Y11048D01*
X101370Y74650D02*
Y75665D01*
X101116Y75919D01*
X100609D01*
X100355Y75665D01*
Y74650D01*
X100609Y74396D01*
X101116D01*
X100862Y74904D02*
X101370Y74396D01*
X101116D02*
X101370Y74650D01*
X101878D02*
X102132Y74396D01*
X102640D01*
X102894Y74650D01*
Y75665D01*
X102640Y75919D01*
X102132D01*
X101878Y75665D01*
Y75411D01*
X102132Y75158D01*
X102894D01*
X44017Y99542D02*
Y100557D01*
X43763Y100811D01*
X43255D01*
X43001Y100557D01*
Y99542D01*
X43255Y99288D01*
X43763D01*
X43509Y99796D02*
X44017Y99288D01*
X43763D02*
X44017Y99542D01*
X44525Y100811D02*
X45541D01*
Y100557D01*
X44525Y99542D01*
Y99288D01*
X60527Y99542D02*
Y100557D01*
X60273Y100811D01*
X59765D01*
X59511Y100557D01*
Y99542D01*
X59765Y99288D01*
X60273D01*
X60019Y99796D02*
X60527Y99288D01*
X60273D02*
X60527Y99542D01*
X62051Y100811D02*
X61543Y100557D01*
X61035Y100050D01*
Y99542D01*
X61289Y99288D01*
X61797D01*
X62051Y99542D01*
Y99796D01*
X61797Y100050D01*
X61035D01*
X101370Y35280D02*
Y36295D01*
X101116Y36549D01*
X100609D01*
X100355Y36295D01*
Y35280D01*
X100609Y35026D01*
X101116D01*
X100862Y35534D02*
X101370Y35026D01*
X101116D02*
X101370Y35280D01*
X102640Y35026D02*
Y36549D01*
X101878Y35788D01*
X102894D01*
X101370Y82270D02*
Y83285D01*
X101116Y83539D01*
X100609D01*
X100355Y83285D01*
Y82270D01*
X100609Y82016D01*
X101116D01*
X100862Y82524D02*
X101370Y82016D01*
X101116D02*
X101370Y82270D01*
X101878Y83285D02*
X102132Y83539D01*
X102640D01*
X102894Y83285D01*
Y83031D01*
X102640Y82778D01*
X102386D01*
X102640D01*
X102894Y82524D01*
Y82270D01*
X102640Y82016D01*
X102132D01*
X101878Y82270D01*
X7289Y39776D02*
Y41299D01*
X8051D01*
X8305Y41045D01*
Y40537D01*
X8051Y40283D01*
X7289D01*
X8813Y41045D02*
X9066Y41299D01*
X9574D01*
X9828Y41045D01*
Y40791D01*
X9574Y40537D01*
X9320D01*
X9574D01*
X9828Y40283D01*
Y40030D01*
X9574Y39776D01*
X9066D01*
X8813Y40030D01*
X6527Y67970D02*
Y69493D01*
X7289D01*
X7543Y69239D01*
Y68731D01*
X7289Y68477D01*
X6527D01*
X9066Y67970D02*
X8051D01*
X9066Y68985D01*
Y69239D01*
X8812Y69493D01*
X8304D01*
X8051Y69239D01*
X146380Y65557D02*
Y67081D01*
X147142D01*
X147396Y66827D01*
Y66319D01*
X147142Y66065D01*
X146380D01*
X147904Y65557D02*
X148412D01*
X148158D01*
Y67081D01*
X147904Y66827D01*
X8330Y85673D02*
X7822D01*
X8076D01*
Y84403D01*
X7822Y84149D01*
X7568D01*
X7314Y84403D01*
X9854Y84149D02*
X8838D01*
X9854Y85165D01*
Y85419D01*
X9600Y85673D01*
X9092D01*
X8838Y85419D01*
X90651Y12978D02*
X90398Y13232D01*
X89890D01*
X89636Y12978D01*
Y11963D01*
X89890Y11709D01*
X90398D01*
X90651Y11963D01*
X91921Y11709D02*
Y13232D01*
X91159Y12470D01*
X92175D01*
X148182Y12978D02*
X147929Y13232D01*
X147421D01*
X147167Y12978D01*
Y11963D01*
X147421Y11709D01*
X147929D01*
X148182Y11963D01*
X148690Y12978D02*
X148944Y13232D01*
X149452D01*
X149706Y12978D01*
Y12724D01*
X149452Y12470D01*
X149198D01*
X149452D01*
X149706Y12216D01*
Y11963D01*
X149452Y11709D01*
X148944D01*
X148690Y11963D01*
X131291Y12978D02*
X131038Y13232D01*
X130530D01*
X130276Y12978D01*
Y11963D01*
X130530Y11709D01*
X131038D01*
X131291Y11963D01*
X132815Y11709D02*
X131799D01*
X132815Y12724D01*
Y12978D01*
X132561Y13232D01*
X132053D01*
X131799Y12978D01*
X112241Y13029D02*
X111988Y13283D01*
X111480D01*
X111226Y13029D01*
Y12013D01*
X111480Y11759D01*
X111988D01*
X112241Y12013D01*
X112749Y11759D02*
X113257D01*
X113003D01*
Y13283D01*
X112749Y13029D01*
D15*
X147131Y62780D02*
X147300Y62949D01*
Y63288D01*
X147131Y63457D01*
X146454D01*
X146284Y63288D01*
Y62949D01*
X146454Y62780D01*
X146623D01*
X146792Y62949D01*
Y63457D01*
X147300Y42720D02*
Y43059D01*
Y42889D01*
X146284D01*
X146454Y42720D01*
X142240Y9652D02*
Y10499D01*
X142071Y10668D01*
X141732D01*
X141563Y10499D01*
Y9652D01*
X141224Y10668D02*
X140886D01*
X141055D01*
Y9652D01*
X141224Y9822D01*
M02*
