G04*
G04 #@! TF.GenerationSoftware,Altium Limited,Altium Designer,21.8.1 (53)*
G04*
G04 Layer_Color=65535*
%FSLAX43Y43*%
%MOMM*%
G71*
G04*
G04 #@! TF.SameCoordinates,43502BEE-6898-4BDF-A8F3-2E7845CCF1CD*
G04*
G04*
G04 #@! TF.FilePolarity,Positive*
G04*
G01*
G75*
%ADD10C,0.250*%
%ADD11C,0.500*%
%ADD12C,0.200*%
%ADD13C,0.100*%
%ADD14C,0.254*%
%ADD15C,0.152*%
%ADD16C,2.032*%
D10*
X34374Y8714D02*
G03*
X34374Y8714I-125J0D01*
G01*
X142364Y12659D02*
G03*
X142364Y12659I-125J0D01*
G01*
X118764Y9059D02*
G03*
X118764Y9059I-125J0D01*
G01*
X99714Y9059D02*
G03*
X99714Y9059I-125J0D01*
G01*
X128016Y27304D02*
G03*
X128016Y27304I-125J0D01*
G01*
X129286Y73024D02*
G03*
X129286Y73024I-125J0D01*
G01*
X108114Y54609D02*
G03*
X108114Y54609I-125J0D01*
G01*
X120774Y45049D02*
G03*
X120774Y45049I-125J0D01*
G01*
X108114Y39369D02*
G03*
X108114Y39369I-125J0D01*
G01*
Y63499D02*
G03*
X108114Y63499I-125J0D01*
G01*
Y24129D02*
G03*
X108114Y24129I-125J0D01*
G01*
Y86359D02*
G03*
X108114Y86359I-125J0D01*
G01*
X54359Y6349D02*
G03*
X54359Y6349I-125J0D01*
G01*
X87379D02*
G03*
X87379Y6349I-125J0D01*
G01*
X25899Y95249D02*
G03*
X25899Y95249I-125J0D01*
G01*
X100414Y46989D02*
G03*
X100414Y46989I-125J0D01*
G01*
X75429Y95249D02*
G03*
X75429Y95249I-125J0D01*
G01*
X67394Y8714D02*
G03*
X67394Y8714I-125J0D01*
G01*
X100414Y71119D02*
G03*
X100414Y71119I-125J0D01*
G01*
X45884Y92884D02*
G03*
X45884Y92884I-125J0D01*
G01*
X62394D02*
G03*
X62394Y92884I-125J0D01*
G01*
X100414Y31749D02*
G03*
X100414Y31749I-125J0D01*
G01*
Y78739D02*
G03*
X100414Y78739I-125J0D01*
G01*
X11046Y15875D02*
G03*
X11046Y15875I-125J0D01*
G01*
X10284Y44069D02*
G03*
X10284Y44069I-125J0D01*
G01*
D11*
X124288Y27349D02*
G03*
X124288Y27349I-250J0D01*
G01*
X125558Y73069D02*
G03*
X125558Y73069I-250J0D01*
G01*
D12*
X102010Y53615D02*
G03*
X106216Y53509I2129J994D01*
G01*
X102205Y55944D02*
G03*
X102010Y55603I1934J-1335D01*
G01*
X106216Y55709D02*
G03*
X106073Y55944I-2077J-1100D01*
G01*
X102010Y38375D02*
G03*
X106216Y38269I2129J994D01*
G01*
X102205Y40704D02*
G03*
X102010Y40363I1934J-1335D01*
G01*
X106216Y40469D02*
G03*
X106073Y40704I-2077J-1100D01*
G01*
X102010Y62505D02*
G03*
X106216Y62399I2129J994D01*
G01*
X102205Y64834D02*
G03*
X102010Y64493I1934J-1335D01*
G01*
X106216Y64599D02*
G03*
X106073Y64834I-2077J-1100D01*
G01*
X102010Y23135D02*
G03*
X106216Y23029I2129J994D01*
G01*
X102205Y25464D02*
G03*
X102010Y25123I1934J-1335D01*
G01*
X106216Y25229D02*
G03*
X106073Y25464I-2077J-1100D01*
G01*
X102010Y85365D02*
G03*
X106216Y85259I2129J994D01*
G01*
X102205Y87694D02*
G03*
X102010Y87353I1934J-1335D01*
G01*
X106216Y87459D02*
G03*
X106073Y87694I-2077J-1100D01*
G01*
X106269Y47983D02*
G03*
X102063Y48089I-2129J-994D01*
G01*
X106073Y45654D02*
G03*
X106269Y45995I-1934J1335D01*
G01*
X102062Y45890D02*
G03*
X102205Y45654I2077J1100D01*
G01*
X106269Y72113D02*
G03*
X102063Y72219I-2129J-994D01*
G01*
X106073Y69784D02*
G03*
X106269Y70125I-1934J1335D01*
G01*
X102062Y70020D02*
G03*
X102205Y69784I2077J1100D01*
G01*
X106269Y32743D02*
G03*
X102063Y32849I-2129J-994D01*
G01*
X106073Y30414D02*
G03*
X106269Y30755I-1934J1335D01*
G01*
X102062Y30650D02*
G03*
X102205Y30414I2077J1100D01*
G01*
X106269Y79733D02*
G03*
X102063Y79839I-2129J-994D01*
G01*
X106073Y77404D02*
G03*
X106269Y77745I-1934J1335D01*
G01*
X102062Y77640D02*
G03*
X102205Y77404I2077J1100D01*
G01*
X91634Y9306D02*
G03*
X91878Y5800I1075J-1687D01*
G01*
X93541D02*
G03*
X93784Y9306I-832J1819D01*
G01*
X147514Y14386D02*
G03*
X147758Y10880I1075J-1687D01*
G01*
X149421D02*
G03*
X149664Y14386I-832J1819D01*
G01*
X130369Y9306D02*
G03*
X130613Y5800I1075J-1687D01*
G01*
X132276D02*
G03*
X132519Y9306I-832J1819D01*
G01*
X111954D02*
G03*
X112198Y5800I1075J-1687D01*
G01*
X113861D02*
G03*
X114104Y9306I-832J1819D01*
G01*
X27449Y8154D02*
X36049D01*
X26374Y3324D02*
X27449Y8154D01*
X26424Y3324D02*
X37074D01*
X36049Y8154D02*
X37124Y3324D01*
X134349Y7809D02*
X145049D01*
X134349Y7309D02*
X145049D01*
X134349Y12009D02*
X145049D01*
Y7309D02*
Y12009D01*
X134349Y7309D02*
Y12009D01*
X117989Y12509D02*
X128389D01*
X117989Y8409D02*
Y13009D01*
Y8409D02*
X128389D01*
Y13009D01*
X117989D02*
X128389D01*
X98939Y12509D02*
X109339D01*
X98939Y8409D02*
Y13009D01*
Y8409D02*
X109339D01*
Y13009D01*
X98939D02*
X109339D01*
X147655Y64580D02*
X150345D01*
X147655Y41420D02*
Y64580D01*
Y41420D02*
X150345D01*
Y64580D01*
X94487Y39369D02*
X95503D01*
X87375D02*
X88391D01*
Y38353D02*
X94487D01*
Y40385D01*
X88391D02*
X94487D01*
X88391Y38353D02*
Y40385D01*
X134365Y41909D02*
X135381D01*
X141477D02*
X142493D01*
X135381Y42925D02*
X141477D01*
X135381Y40893D02*
Y42925D01*
Y40893D02*
X141477D01*
Y42925D01*
X105155Y67309D02*
X106171D01*
X112267D02*
X113283D01*
X106171Y68325D02*
X112267D01*
X106171Y66293D02*
Y68325D01*
Y66293D02*
X112267D01*
Y68325D01*
X94487Y71119D02*
X95503D01*
X87375D02*
X88391D01*
Y70103D02*
X94487D01*
Y72135D01*
X88391D02*
X94487D01*
X88391Y70103D02*
Y72135D01*
X134365Y60959D02*
X135381D01*
X141477D02*
X142493D01*
X135381Y61975D02*
X141477D01*
X135381Y59943D02*
Y61975D01*
Y59943D02*
X141477D01*
Y61975D01*
X87375Y43179D02*
X88391D01*
X94487D02*
X95503D01*
X88391Y44195D02*
X94487D01*
X88391Y42163D02*
Y44195D01*
Y42163D02*
X94487D01*
Y44195D01*
Y46989D02*
X95503D01*
X87375D02*
X88391D01*
Y45973D02*
X94487D01*
Y48005D01*
X88391D02*
X94487D01*
X88391Y45973D02*
Y48005D01*
X121590Y26599D02*
X124788D01*
X121590D02*
Y36899D01*
X124788D01*
Y26599D02*
Y36899D01*
X122860Y72319D02*
X126058D01*
X122860D02*
Y82619D01*
X126058D01*
Y72319D02*
Y82619D01*
X114807Y95249D02*
X115823D01*
X107695D02*
X108711D01*
Y94233D02*
X114807D01*
Y96265D01*
X108711D02*
X114807D01*
X108711Y94233D02*
Y96265D01*
X107695Y90169D02*
X108711D01*
X114807D02*
X115823D01*
X108711Y91185D02*
X114807D01*
X108711Y89153D02*
Y91185D01*
Y89153D02*
X114807D01*
Y91185D01*
X87375Y50799D02*
X88391D01*
X94487D02*
X95503D01*
X88391Y51815D02*
X94487D01*
X88391Y49783D02*
Y51815D01*
Y49783D02*
X94487D01*
Y51815D01*
Y54609D02*
X95503D01*
X87375D02*
X88391D01*
Y53593D02*
X94487D01*
Y55625D01*
X88391D02*
X94487D01*
X88391Y53593D02*
Y55625D01*
X105155Y50799D02*
X106171D01*
X112267D02*
X113283D01*
X106171Y51815D02*
X112267D01*
X106171Y49783D02*
Y51815D01*
Y49783D02*
X112267D01*
Y51815D01*
X134365Y49529D02*
X135381D01*
X141477D02*
X142493D01*
X135381Y50545D02*
X141477D01*
X135381Y48513D02*
Y50545D01*
Y48513D02*
X141477D01*
Y50545D01*
X87375Y35559D02*
X88391D01*
X94487D02*
X95503D01*
X88391Y36575D02*
X94487D01*
X88391Y34543D02*
Y36575D01*
Y34543D02*
X94487D01*
Y36575D01*
X87375Y59689D02*
X88391D01*
X94487D02*
X95503D01*
X88391Y60705D02*
X94487D01*
X88391Y58673D02*
Y60705D01*
Y58673D02*
X94487D01*
Y60705D01*
Y63499D02*
X95503D01*
X87375D02*
X88391D01*
Y62483D02*
X94487D01*
Y64515D01*
X88391D02*
X94487D01*
X88391Y62483D02*
Y64515D01*
X105155Y35559D02*
X106171D01*
X112267D02*
X113283D01*
X106171Y36575D02*
X112267D01*
X106171Y34543D02*
Y36575D01*
Y34543D02*
X112267D01*
Y36575D01*
X105155Y58419D02*
X106171D01*
X112267D02*
X113283D01*
X106171Y59435D02*
X112267D01*
X106171Y57403D02*
Y59435D01*
Y57403D02*
X112267D01*
Y59435D01*
X134365Y57149D02*
X135381D01*
X141477D02*
X142493D01*
X135381Y58165D02*
X141477D01*
X135381Y56133D02*
Y58165D01*
Y56133D02*
X141477D01*
Y58165D01*
X134365Y64769D02*
X135381D01*
X141477D02*
X142493D01*
X135381Y65785D02*
X141477D01*
X135381Y63753D02*
Y65785D01*
Y63753D02*
X141477D01*
Y65785D01*
X87375Y20319D02*
X88391D01*
X94487D02*
X95503D01*
X88391Y21335D02*
X94487D01*
X88391Y19303D02*
Y21335D01*
Y19303D02*
X94487D01*
Y21335D01*
Y24129D02*
X95503D01*
X87375D02*
X88391D01*
Y23113D02*
X94487D01*
Y25145D01*
X88391D02*
X94487D01*
X88391Y23113D02*
Y25145D01*
X87375Y82549D02*
X88391D01*
X94487D02*
X95503D01*
X88391Y83565D02*
X94487D01*
X88391Y81533D02*
Y83565D01*
Y81533D02*
X94487D01*
Y83565D01*
Y86359D02*
X95503D01*
X87375D02*
X88391D01*
Y85343D02*
X94487D01*
Y87375D01*
X88391D02*
X94487D01*
X88391Y85343D02*
Y87375D01*
X105155Y19049D02*
X106171D01*
X112267D02*
X113283D01*
X106171Y20065D02*
X112267D01*
X106171Y18033D02*
Y20065D01*
Y18033D02*
X112267D01*
Y20065D01*
X105155Y82549D02*
X106171D01*
X112267D02*
X113283D01*
X106171Y83565D02*
X112267D01*
X106171Y81533D02*
Y83565D01*
Y81533D02*
X112267D01*
Y83565D01*
X134365Y53339D02*
X135381D01*
X141477D02*
X142493D01*
X135381Y54355D02*
X141477D01*
X135381Y52323D02*
Y54355D01*
Y52323D02*
X141477D01*
Y54355D01*
X134365Y68579D02*
X135381D01*
X141477D02*
X142493D01*
X135381Y69595D02*
X141477D01*
X135381Y67563D02*
Y69595D01*
Y67563D02*
X141477D01*
Y69595D01*
X105155Y43179D02*
X106171D01*
X112267D02*
X113283D01*
X106171Y44195D02*
X112267D01*
X106171Y42163D02*
Y44195D01*
Y42163D02*
X112267D01*
Y44195D01*
X87375Y67309D02*
X88391D01*
X94487D02*
X95503D01*
X88391Y68325D02*
X94487D01*
X88391Y66293D02*
Y68325D01*
Y66293D02*
X94487D01*
Y68325D01*
X105155Y27939D02*
X106171D01*
X112267D02*
X113283D01*
X106171Y28955D02*
X112267D01*
X106171Y26923D02*
Y28955D01*
Y26923D02*
X112267D01*
Y28955D01*
X105155Y74929D02*
X106171D01*
X112267D02*
X113283D01*
X106171Y75945D02*
X112267D01*
X106171Y73913D02*
Y75945D01*
Y73913D02*
X112267D01*
Y75945D01*
X94487Y31749D02*
X95503D01*
X87375D02*
X88391D01*
Y30733D02*
X94487D01*
Y32765D01*
X88391D02*
X94487D01*
X88391Y30733D02*
Y32765D01*
X134365Y45719D02*
X135381D01*
X141477D02*
X142493D01*
X135381Y46735D02*
X141477D01*
X135381Y44703D02*
Y46735D01*
Y44703D02*
X141477D01*
Y46735D01*
X87375Y27939D02*
X88391D01*
X94487D02*
X95503D01*
X88391Y28955D02*
X94487D01*
X88391Y26923D02*
Y28955D01*
Y26923D02*
X94487D01*
Y28955D01*
Y78739D02*
X95503D01*
X87375D02*
X88391D01*
Y77723D02*
X94487D01*
Y79755D01*
X88391D02*
X94487D01*
X88391Y77723D02*
Y79755D01*
X134365Y72389D02*
X135381D01*
X141477D02*
X142493D01*
X135381Y73405D02*
X141477D01*
X135381Y71373D02*
Y73405D01*
Y71373D02*
X141477D01*
Y73405D01*
X87375Y74929D02*
X88391D01*
X94487D02*
X95503D01*
X88391Y75945D02*
X94487D01*
X88391Y73913D02*
Y75945D01*
Y73913D02*
X94487D01*
Y75945D01*
X102205Y55944D02*
X106073D01*
X119379Y47299D02*
Y54299D01*
X124414D02*
X124459D01*
X119379D02*
X119424D01*
X124459Y47299D02*
Y54299D01*
X124414Y47299D02*
X124459D01*
X119379D02*
X119424D01*
X102205Y40704D02*
X106073D01*
X102205Y64834D02*
X106073D01*
X102205Y25464D02*
X106073D01*
X102205Y87694D02*
X106073D01*
X43059Y3369D02*
X53459D01*
X52759Y7919D02*
X53459Y3369D01*
X43059D02*
X43759Y7919D01*
X52759D01*
X76079Y3369D02*
X86479D01*
X85779Y7919D02*
X86479Y3369D01*
X76079D02*
X76779Y7919D01*
X85779D01*
X26549Y98229D02*
X36949D01*
X26549D02*
X27249Y93679D01*
X36249D02*
X36949Y98229D01*
X27249Y93679D02*
X36249D01*
X102205Y45654D02*
X106073D01*
X76779Y93679D02*
X85779D01*
X86479Y98229D01*
X76079D02*
X76779Y93679D01*
X76079Y98229D02*
X86479D01*
X60469Y8154D02*
X69069D01*
X59394Y3324D02*
X60469Y8154D01*
X59444Y3324D02*
X70094D01*
X69069Y8154D02*
X70144Y3324D01*
X102205Y69784D02*
X106073D01*
X42884Y98274D02*
X43959Y93444D01*
X42934Y98274D02*
X53584D01*
X52559Y93444D02*
X53634Y98274D01*
X43959Y93444D02*
X52559D01*
X59394Y98274D02*
X60469Y93444D01*
X59444Y98274D02*
X70094D01*
X69069Y93444D02*
X70144Y98274D01*
X60469Y93444D02*
X69069D01*
X102205Y30414D02*
X106073D01*
X102205Y77404D02*
X106073D01*
X7121Y38845D02*
X15721D01*
Y16525D02*
Y38845D01*
X7121Y16525D02*
X15721D01*
X7121D02*
Y38845D01*
X6359Y67039D02*
X14959D01*
Y44719D02*
Y67039D01*
X6359Y44719D02*
X14959D01*
X6359D02*
Y67039D01*
X14729Y72509D02*
Y82509D01*
X12254Y71909D02*
X13104D01*
X12254D02*
X12329Y72509D01*
X13029D02*
X13104Y71909D01*
X13029Y72509D02*
X14729D01*
X7229D02*
Y82509D01*
Y72509D02*
X12329D01*
X8129Y83109D02*
X9079D01*
X8129D02*
X8179Y82509D01*
X9029D02*
X9079Y83109D01*
X7229Y82509D02*
X8179D01*
X9029D02*
X14729D01*
D13*
X-1Y-1D02*
Y101599D01*
X152399D01*
Y-1D02*
Y101599D01*
X-1Y-1D02*
X152399D01*
D14*
X69719Y62089D02*
Y63789D01*
X67219Y66289D02*
X69719Y63789D01*
X47219Y66289D02*
X67219D01*
X46119Y65189D02*
X47219Y66289D01*
X46119Y43589D02*
Y65189D01*
Y43589D02*
X48019Y41689D01*
X68619D01*
X69719Y42789D01*
Y43189D01*
Y62589D01*
X1143Y74168D02*
X2159D01*
X1651Y74676D02*
Y73660D01*
X1016Y78969D02*
X2032D01*
X152361Y45563D02*
X151345D01*
Y44801D01*
X151853Y45055D01*
X152107D01*
X152361Y44801D01*
Y44293D01*
X152107Y44039D01*
X151599D01*
X151345Y44293D01*
X152869Y45563D02*
Y44547D01*
X153377Y44039D01*
X153885Y44547D01*
Y45563D01*
X813Y62154D02*
Y63677D01*
X1321Y63169D01*
X1828Y63677D01*
Y62154D01*
X3352D02*
X2336D01*
X3352Y63169D01*
Y63423D01*
X3098Y63677D01*
X2590D01*
X2336Y63423D01*
X3860Y61900D02*
X4875D01*
X5383Y62154D02*
X5891D01*
X5637D01*
Y63677D01*
X5383Y63423D01*
X813Y56439D02*
Y57962D01*
X1321Y57454D01*
X1828Y57962D01*
Y56439D01*
X3352D02*
X2336D01*
X3352Y57454D01*
Y57708D01*
X3098Y57962D01*
X2590D01*
X2336Y57708D01*
X3860Y56185D02*
X4875D01*
X6399Y56439D02*
X5383D01*
X6399Y57454D01*
Y57708D01*
X6145Y57962D01*
X5637D01*
X5383Y57708D01*
X813Y51994D02*
Y53517D01*
X1321Y53009D01*
X1828Y53517D01*
Y51994D01*
X2336D02*
X2844D01*
X2590D01*
Y53517D01*
X2336Y53263D01*
X3606Y51740D02*
X4622D01*
X6145Y51994D02*
X5129D01*
X6145Y53009D01*
Y53263D01*
X5891Y53517D01*
X5383D01*
X5129Y53263D01*
X813Y46914D02*
Y48437D01*
X1321Y47929D01*
X1828Y48437D01*
Y46914D01*
X2336D02*
X2844D01*
X2590D01*
Y48437D01*
X2336Y48183D01*
X3606Y46660D02*
X4622D01*
X5129Y46914D02*
X5637D01*
X5383D01*
Y48437D01*
X5129Y48183D01*
X813Y35483D02*
X1828D01*
X1321D01*
Y33960D01*
X2336D02*
Y35483D01*
X3098D01*
X3352Y35229D01*
Y34722D01*
X3098Y34468D01*
X2336D01*
X2844D02*
X3352Y33960D01*
X4875D02*
X3860D01*
X4875Y34975D01*
Y35229D01*
X4622Y35483D01*
X4114D01*
X3860Y35229D01*
X6399D02*
X6145Y35483D01*
X5637D01*
X5383Y35229D01*
Y34214D01*
X5637Y33960D01*
X6145D01*
X6399Y34214D01*
Y34722D01*
X5891D01*
X813Y30403D02*
X1828D01*
X1321D01*
Y28880D01*
X2336D02*
Y30403D01*
X3098D01*
X3352Y30149D01*
Y29642D01*
X3098Y29388D01*
X2336D01*
X2844D02*
X3352Y28880D01*
X4875D02*
X3860D01*
X4875Y29895D01*
Y30149D01*
X4622Y30403D01*
X4114D01*
X3860Y30149D01*
X5383Y30403D02*
Y29388D01*
X5891Y28880D01*
X6399Y29388D01*
Y30403D01*
X813Y25323D02*
X1828D01*
X1321D01*
Y23800D01*
X2336D02*
Y25323D01*
X3098D01*
X3352Y25069D01*
Y24562D01*
X3098Y24308D01*
X2336D01*
X2844D02*
X3352Y23800D01*
X3860D02*
X4368D01*
X4114D01*
Y25323D01*
X3860Y25069D01*
X6145D02*
X5891Y25323D01*
X5383D01*
X5129Y25069D01*
Y24054D01*
X5383Y23800D01*
X5891D01*
X6145Y24054D01*
Y24562D01*
X5637D01*
X813Y20243D02*
X1828D01*
X1321D01*
Y18720D01*
X2336D02*
Y20243D01*
X3098D01*
X3352Y19989D01*
Y19482D01*
X3098Y19228D01*
X2336D01*
X2844D02*
X3352Y18720D01*
X4875D02*
X3860D01*
X4875Y19735D01*
Y19989D01*
X4622Y20243D01*
X4114D01*
X3860Y19989D01*
X5383Y20243D02*
Y19228D01*
X5891Y18720D01*
X6399Y19228D01*
Y20243D01*
X152323Y63804D02*
X152070Y64058D01*
X151562D01*
X151308Y63804D01*
Y62789D01*
X151562Y62535D01*
X152070D01*
X152323Y62789D01*
Y63297D01*
X151816D01*
X152831Y62535D02*
Y64058D01*
X153847Y62535D01*
Y64058D01*
X154355D02*
Y62535D01*
X155117D01*
X155370Y62789D01*
Y63804D01*
X155117Y64058D01*
X154355D01*
X151308Y60883D02*
Y59360D01*
X152070D01*
X152323Y59614D01*
Y60629D01*
X152070Y60883D01*
X151308D01*
X153847Y59360D02*
X152831D01*
X153847Y60375D01*
Y60629D01*
X153593Y60883D01*
X153085D01*
X152831Y60629D01*
X154355Y60883D02*
Y59360D01*
X155117D01*
X155370Y59614D01*
Y59868D01*
X155117Y60122D01*
X154355D01*
X155117D01*
X155370Y60375D01*
Y60629D01*
X155117Y60883D01*
X154355D01*
X151308Y58343D02*
Y56820D01*
X152070D01*
X152323Y57074D01*
Y58089D01*
X152070Y58343D01*
X151308D01*
X153847Y56820D02*
X152831D01*
X153847Y57835D01*
Y58089D01*
X153593Y58343D01*
X153085D01*
X152831Y58089D01*
X155370Y58343D02*
X154355D01*
Y57582D01*
X154863D01*
X154355D01*
Y56820D01*
X151308Y55803D02*
Y54280D01*
X152070D01*
X152323Y54534D01*
Y55549D01*
X152070Y55803D01*
X151308D01*
X152831Y54280D02*
X153339D01*
X153085D01*
Y55803D01*
X152831Y55549D01*
X154101Y55803D02*
Y54280D01*
X154863D01*
X155117Y54534D01*
Y54788D01*
X154863Y55042D01*
X154101D01*
X154863D01*
X155117Y55295D01*
Y55549D01*
X154863Y55803D01*
X154101D01*
X151308Y53263D02*
Y51740D01*
X152070D01*
X152323Y51994D01*
Y53009D01*
X152070Y53263D01*
X151308D01*
X152831Y51740D02*
X153339D01*
X153085D01*
Y53263D01*
X152831Y53009D01*
X155117Y53263D02*
X154101D01*
Y52502D01*
X154609D01*
X154101D01*
Y51740D01*
X151308Y49200D02*
Y50723D01*
X152070D01*
X152323Y50469D01*
Y49962D01*
X152070Y49708D01*
X151308D01*
X151816D02*
X152323Y49200D01*
X153847Y50723D02*
X152831D01*
Y49200D01*
X153847D01*
X152831Y49962D02*
X153339D01*
X154355Y50723D02*
Y49200D01*
X155370D01*
X151308Y48183D02*
Y47168D01*
X151816Y46660D01*
X152323Y47168D01*
Y48183D01*
X152831D02*
Y46660D01*
X153593D01*
X153847Y46914D01*
Y47168D01*
X153593Y47422D01*
X152831D01*
X153593D01*
X153847Y47675D01*
Y47929D01*
X153593Y48183D01*
X152831D01*
X154355D02*
X155370D01*
X154863D01*
Y46660D01*
X151308Y42849D02*
X151562Y43103D01*
X152070D01*
X152323Y42849D01*
Y42595D01*
X152070Y42342D01*
X151816D01*
X152070D01*
X152323Y42088D01*
Y41834D01*
X152070Y41580D01*
X151562D01*
X151308Y41834D01*
X152831Y41580D02*
Y41834D01*
X153085D01*
Y41580D01*
X152831D01*
X154101Y42849D02*
X154355Y43103D01*
X154863D01*
X155117Y42849D01*
Y42595D01*
X154863Y42342D01*
X154609D01*
X154863D01*
X155117Y42088D01*
Y41834D01*
X154863Y41580D01*
X154355D01*
X154101Y41834D01*
X155624Y43103D02*
Y42088D01*
X156132Y41580D01*
X156640Y42088D01*
Y43103D01*
X27506Y10031D02*
Y11047D01*
X27252Y11301D01*
X26745D01*
X26491Y11047D01*
Y10031D01*
X26745Y9777D01*
X27252D01*
X26998Y10285D02*
X27506Y9777D01*
X27252D02*
X27506Y10031D01*
X28014Y9777D02*
X28522D01*
X28268D01*
Y11301D01*
X28014Y11047D01*
X29284Y9777D02*
X29792D01*
X29538D01*
Y11301D01*
X29284Y11047D01*
X118185Y15441D02*
Y14172D01*
X118439Y13918D01*
X118946D01*
X119200Y14172D01*
Y15441D01*
X119708Y15187D02*
X119962Y15441D01*
X120470D01*
X120724Y15187D01*
Y14933D01*
X120470Y14679D01*
X120216D01*
X120470D01*
X120724Y14425D01*
Y14172D01*
X120470Y13918D01*
X119962D01*
X119708Y14172D01*
X99135Y15441D02*
Y14172D01*
X99389Y13918D01*
X99896D01*
X100150Y14172D01*
Y15441D01*
X101674Y13918D02*
X100658D01*
X101674Y14933D01*
Y15187D01*
X101420Y15441D01*
X100912D01*
X100658Y15187D01*
X134517Y15238D02*
Y13968D01*
X134771Y13714D01*
X135279D01*
X135532Y13968D01*
Y15238D01*
X136040Y13714D02*
X136548D01*
X136294D01*
Y15238D01*
X136040Y14984D01*
X118693Y39825D02*
Y38556D01*
X118947Y38302D01*
X119454D01*
X119708Y38556D01*
Y39825D01*
X121232D02*
X120724Y39571D01*
X120216Y39063D01*
Y38556D01*
X120470Y38302D01*
X120978D01*
X121232Y38556D01*
Y38809D01*
X120978Y39063D01*
X120216D01*
X119963Y85545D02*
Y84276D01*
X120217Y84022D01*
X120724D01*
X120978Y84276D01*
Y85545D01*
X122502D02*
X121486D01*
Y84783D01*
X121994Y85037D01*
X122248D01*
X122502Y84783D01*
Y84276D01*
X122248Y84022D01*
X121740D01*
X121486Y84276D01*
X46303Y68756D02*
Y67486D01*
X46557Y67232D01*
X47064D01*
X47318Y67486D01*
Y68756D01*
X48588Y67232D02*
Y68756D01*
X47826Y67994D01*
X48842D01*
X106170Y97179D02*
Y98702D01*
X106932D01*
X107186Y98448D01*
Y97941D01*
X106932Y97687D01*
X106170D01*
X106678D02*
X107186Y97179D01*
X107694Y98448D02*
X107948Y98702D01*
X108456D01*
X108710Y98448D01*
Y98194D01*
X108456Y97941D01*
X108202D01*
X108456D01*
X108710Y97687D01*
Y97433D01*
X108456Y97179D01*
X107948D01*
X107694Y97433D01*
X109217Y98448D02*
X109471Y98702D01*
X109979D01*
X110233Y98448D01*
Y98194D01*
X109979Y97941D01*
X110233Y97687D01*
Y97433D01*
X109979Y97179D01*
X109471D01*
X109217Y97433D01*
Y97687D01*
X109471Y97941D01*
X109217Y98194D01*
Y98448D01*
X109471Y97941D02*
X109979D01*
X106170Y92099D02*
Y93622D01*
X106932D01*
X107186Y93368D01*
Y92861D01*
X106932Y92607D01*
X106170D01*
X106678D02*
X107186Y92099D01*
X107694Y93368D02*
X107948Y93622D01*
X108456D01*
X108710Y93368D01*
Y93114D01*
X108456Y92861D01*
X108202D01*
X108456D01*
X108710Y92607D01*
Y92353D01*
X108456Y92099D01*
X107948D01*
X107694Y92353D01*
X109217Y93622D02*
X110233D01*
Y93368D01*
X109217Y92353D01*
Y92099D01*
X85850Y52729D02*
Y54252D01*
X86612D01*
X86866Y53998D01*
Y53491D01*
X86612Y53237D01*
X85850D01*
X86358D02*
X86866Y52729D01*
X87374Y53998D02*
X87628Y54252D01*
X88136D01*
X88390Y53998D01*
Y53744D01*
X88136Y53491D01*
X87882D01*
X88136D01*
X88390Y53237D01*
Y52983D01*
X88136Y52729D01*
X87628D01*
X87374Y52983D01*
X89913Y54252D02*
X89405Y53998D01*
X88897Y53491D01*
Y52983D01*
X89151Y52729D01*
X89659D01*
X89913Y52983D01*
Y53237D01*
X89659Y53491D01*
X88897D01*
X85850Y56539D02*
Y58062D01*
X86612D01*
X86866Y57808D01*
Y57301D01*
X86612Y57047D01*
X85850D01*
X86358D02*
X86866Y56539D01*
X87374Y57808D02*
X87628Y58062D01*
X88136D01*
X88390Y57808D01*
Y57554D01*
X88136Y57301D01*
X87882D01*
X88136D01*
X88390Y57047D01*
Y56793D01*
X88136Y56539D01*
X87628D01*
X87374Y56793D01*
X89913Y58062D02*
X88897D01*
Y57301D01*
X89405Y57554D01*
X89659D01*
X89913Y57301D01*
Y56793D01*
X89659Y56539D01*
X89151D01*
X88897Y56793D01*
X103630Y52729D02*
Y54252D01*
X104392D01*
X104646Y53998D01*
Y53491D01*
X104392Y53237D01*
X103630D01*
X104138D02*
X104646Y52729D01*
X105154Y53998D02*
X105408Y54252D01*
X105916D01*
X106170Y53998D01*
Y53744D01*
X105916Y53491D01*
X105662D01*
X105916D01*
X106170Y53237D01*
Y52983D01*
X105916Y52729D01*
X105408D01*
X105154Y52983D01*
X107439Y52729D02*
Y54252D01*
X106677Y53491D01*
X107693D01*
X132840Y51459D02*
Y52982D01*
X133602D01*
X133856Y52728D01*
Y52221D01*
X133602Y51967D01*
X132840D01*
X133348D02*
X133856Y51459D01*
X134364Y52728D02*
X134618Y52982D01*
X135126D01*
X135380Y52728D01*
Y52474D01*
X135126Y52221D01*
X134872D01*
X135126D01*
X135380Y51967D01*
Y51713D01*
X135126Y51459D01*
X134618D01*
X134364Y51713D01*
X135887Y52728D02*
X136141Y52982D01*
X136649D01*
X136903Y52728D01*
Y52474D01*
X136649Y52221D01*
X136395D01*
X136649D01*
X136903Y51967D01*
Y51713D01*
X136649Y51459D01*
X136141D01*
X135887Y51713D01*
X85850Y37489D02*
Y39012D01*
X86612D01*
X86866Y38758D01*
Y38251D01*
X86612Y37997D01*
X85850D01*
X86358D02*
X86866Y37489D01*
X87374Y38758D02*
X87628Y39012D01*
X88136D01*
X88390Y38758D01*
Y38504D01*
X88136Y38251D01*
X87882D01*
X88136D01*
X88390Y37997D01*
Y37743D01*
X88136Y37489D01*
X87628D01*
X87374Y37743D01*
X89913Y37489D02*
X88897D01*
X89913Y38504D01*
Y38758D01*
X89659Y39012D01*
X89151D01*
X88897Y38758D01*
X85850Y41299D02*
Y42822D01*
X86612D01*
X86866Y42568D01*
Y42061D01*
X86612Y41807D01*
X85850D01*
X86358D02*
X86866Y41299D01*
X87374Y42568D02*
X87628Y42822D01*
X88136D01*
X88390Y42568D01*
Y42314D01*
X88136Y42061D01*
X87882D01*
X88136D01*
X88390Y41807D01*
Y41553D01*
X88136Y41299D01*
X87628D01*
X87374Y41553D01*
X88897Y41299D02*
X89405D01*
X89151D01*
Y42822D01*
X88897Y42568D01*
X85850Y61619D02*
Y63142D01*
X86612D01*
X86866Y62888D01*
Y62381D01*
X86612Y62127D01*
X85850D01*
X86358D02*
X86866Y61619D01*
X87374Y62888D02*
X87628Y63142D01*
X88136D01*
X88390Y62888D01*
Y62634D01*
X88136Y62381D01*
X87882D01*
X88136D01*
X88390Y62127D01*
Y61873D01*
X88136Y61619D01*
X87628D01*
X87374Y61873D01*
X88897Y62888D02*
X89151Y63142D01*
X89659D01*
X89913Y62888D01*
Y61873D01*
X89659Y61619D01*
X89151D01*
X88897Y61873D01*
Y62888D01*
X85850Y65429D02*
Y66952D01*
X86612D01*
X86866Y66698D01*
Y66191D01*
X86612Y65937D01*
X85850D01*
X86358D02*
X86866Y65429D01*
X88390D02*
X87374D01*
X88390Y66444D01*
Y66698D01*
X88136Y66952D01*
X87628D01*
X87374Y66698D01*
X88897Y65683D02*
X89151Y65429D01*
X89659D01*
X89913Y65683D01*
Y66698D01*
X89659Y66952D01*
X89151D01*
X88897Y66698D01*
Y66444D01*
X89151Y66191D01*
X89913D01*
X103630Y37489D02*
Y39012D01*
X104392D01*
X104646Y38758D01*
Y38251D01*
X104392Y37997D01*
X103630D01*
X104138D02*
X104646Y37489D01*
X106170D02*
X105154D01*
X106170Y38504D01*
Y38758D01*
X105916Y39012D01*
X105408D01*
X105154Y38758D01*
X106677D02*
X106931Y39012D01*
X107439D01*
X107693Y38758D01*
Y38504D01*
X107439Y38251D01*
X107693Y37997D01*
Y37743D01*
X107439Y37489D01*
X106931D01*
X106677Y37743D01*
Y37997D01*
X106931Y38251D01*
X106677Y38504D01*
Y38758D01*
X106931Y38251D02*
X107439D01*
X103630Y60349D02*
Y61872D01*
X104392D01*
X104646Y61618D01*
Y61111D01*
X104392Y60857D01*
X103630D01*
X104138D02*
X104646Y60349D01*
X106170D02*
X105154D01*
X106170Y61364D01*
Y61618D01*
X105916Y61872D01*
X105408D01*
X105154Y61618D01*
X106677Y61872D02*
X107693D01*
Y61618D01*
X106677Y60603D01*
Y60349D01*
X132840Y59079D02*
Y60602D01*
X133602D01*
X133856Y60348D01*
Y59841D01*
X133602Y59587D01*
X132840D01*
X133348D02*
X133856Y59079D01*
X135380D02*
X134364D01*
X135380Y60094D01*
Y60348D01*
X135126Y60602D01*
X134618D01*
X134364Y60348D01*
X136903Y60602D02*
X136395Y60348D01*
X135887Y59841D01*
Y59333D01*
X136141Y59079D01*
X136649D01*
X136903Y59333D01*
Y59587D01*
X136649Y59841D01*
X135887D01*
X132840Y66699D02*
Y68222D01*
X133602D01*
X133856Y67968D01*
Y67461D01*
X133602Y67207D01*
X132840D01*
X133348D02*
X133856Y66699D01*
X135380D02*
X134364D01*
X135380Y67714D01*
Y67968D01*
X135126Y68222D01*
X134618D01*
X134364Y67968D01*
X136903Y68222D02*
X135887D01*
Y67461D01*
X136395Y67714D01*
X136649D01*
X136903Y67461D01*
Y66953D01*
X136649Y66699D01*
X136141D01*
X135887Y66953D01*
X85850Y22249D02*
Y23772D01*
X86612D01*
X86866Y23518D01*
Y23011D01*
X86612Y22757D01*
X85850D01*
X86358D02*
X86866Y22249D01*
X88390D02*
X87374D01*
X88390Y23264D01*
Y23518D01*
X88136Y23772D01*
X87628D01*
X87374Y23518D01*
X89659Y22249D02*
Y23772D01*
X88897Y23011D01*
X89913D01*
X85850Y26059D02*
Y27582D01*
X86612D01*
X86866Y27328D01*
Y26821D01*
X86612Y26567D01*
X85850D01*
X86358D02*
X86866Y26059D01*
X88390D02*
X87374D01*
X88390Y27074D01*
Y27328D01*
X88136Y27582D01*
X87628D01*
X87374Y27328D01*
X88897D02*
X89151Y27582D01*
X89659D01*
X89913Y27328D01*
Y27074D01*
X89659Y26821D01*
X89405D01*
X89659D01*
X89913Y26567D01*
Y26313D01*
X89659Y26059D01*
X89151D01*
X88897Y26313D01*
X85850Y84479D02*
Y86002D01*
X86612D01*
X86866Y85748D01*
Y85241D01*
X86612Y84987D01*
X85850D01*
X86358D02*
X86866Y84479D01*
X88390D02*
X87374D01*
X88390Y85494D01*
Y85748D01*
X88136Y86002D01*
X87628D01*
X87374Y85748D01*
X89913Y84479D02*
X88897D01*
X89913Y85494D01*
Y85748D01*
X89659Y86002D01*
X89151D01*
X88897Y85748D01*
X85850Y88289D02*
Y89812D01*
X86612D01*
X86866Y89558D01*
Y89051D01*
X86612Y88797D01*
X85850D01*
X86358D02*
X86866Y88289D01*
X88390D02*
X87374D01*
X88390Y89304D01*
Y89558D01*
X88136Y89812D01*
X87628D01*
X87374Y89558D01*
X88897Y88289D02*
X89405D01*
X89151D01*
Y89812D01*
X88897Y89558D01*
X103630Y20979D02*
Y22502D01*
X104392D01*
X104646Y22248D01*
Y21741D01*
X104392Y21487D01*
X103630D01*
X104138D02*
X104646Y20979D01*
X106170D02*
X105154D01*
X106170Y21994D01*
Y22248D01*
X105916Y22502D01*
X105408D01*
X105154Y22248D01*
X106677D02*
X106931Y22502D01*
X107439D01*
X107693Y22248D01*
Y21233D01*
X107439Y20979D01*
X106931D01*
X106677Y21233D01*
Y22248D01*
X103630Y84479D02*
Y86002D01*
X104392D01*
X104646Y85748D01*
Y85241D01*
X104392Y84987D01*
X103630D01*
X104138D02*
X104646Y84479D01*
X105154D02*
X105662D01*
X105408D01*
Y86002D01*
X105154Y85748D01*
X106424Y84733D02*
X106677Y84479D01*
X107185D01*
X107439Y84733D01*
Y85748D01*
X107185Y86002D01*
X106677D01*
X106424Y85748D01*
Y85494D01*
X106677Y85241D01*
X107439D01*
X132840Y55269D02*
Y56792D01*
X133602D01*
X133856Y56538D01*
Y56031D01*
X133602Y55777D01*
X132840D01*
X133348D02*
X133856Y55269D01*
X134364D02*
X134872D01*
X134618D01*
Y56792D01*
X134364Y56538D01*
X135633D02*
X135887Y56792D01*
X136395D01*
X136649Y56538D01*
Y56284D01*
X136395Y56031D01*
X136649Y55777D01*
Y55523D01*
X136395Y55269D01*
X135887D01*
X135633Y55523D01*
Y55777D01*
X135887Y56031D01*
X135633Y56284D01*
Y56538D01*
X135887Y56031D02*
X136395D01*
X132840Y70509D02*
Y72032D01*
X133602D01*
X133856Y71778D01*
Y71271D01*
X133602Y71017D01*
X132840D01*
X133348D02*
X133856Y70509D01*
X134364D02*
X134872D01*
X134618D01*
Y72032D01*
X134364Y71778D01*
X135633Y72032D02*
X136649D01*
Y71778D01*
X135633Y70763D01*
Y70509D01*
X103630Y45109D02*
Y46632D01*
X104392D01*
X104646Y46378D01*
Y45871D01*
X104392Y45617D01*
X103630D01*
X104138D02*
X104646Y45109D01*
X105154D02*
X105662D01*
X105408D01*
Y46632D01*
X105154Y46378D01*
X107439Y46632D02*
X106931Y46378D01*
X106424Y45871D01*
Y45363D01*
X106677Y45109D01*
X107185D01*
X107439Y45363D01*
Y45617D01*
X107185Y45871D01*
X106424D01*
X103630Y69239D02*
Y70762D01*
X104392D01*
X104646Y70508D01*
Y70001D01*
X104392Y69747D01*
X103630D01*
X104138D02*
X104646Y69239D01*
X105154D02*
X105662D01*
X105408D01*
Y70762D01*
X105154Y70508D01*
X107439Y70762D02*
X106424D01*
Y70001D01*
X106931Y70254D01*
X107185D01*
X107439Y70001D01*
Y69493D01*
X107185Y69239D01*
X106677D01*
X106424Y69493D01*
X85850Y48919D02*
Y50442D01*
X86612D01*
X86866Y50188D01*
Y49681D01*
X86612Y49427D01*
X85850D01*
X86358D02*
X86866Y48919D01*
X87374D02*
X87882D01*
X87628D01*
Y50442D01*
X87374Y50188D01*
X89405Y48919D02*
Y50442D01*
X88644Y49681D01*
X89659D01*
X132840Y43839D02*
Y45362D01*
X133602D01*
X133856Y45108D01*
Y44601D01*
X133602Y44347D01*
X132840D01*
X133348D02*
X133856Y43839D01*
X134364D02*
X134872D01*
X134618D01*
Y45362D01*
X134364Y45108D01*
X135633D02*
X135887Y45362D01*
X136395D01*
X136649Y45108D01*
Y44854D01*
X136395Y44601D01*
X136141D01*
X136395D01*
X136649Y44347D01*
Y44093D01*
X136395Y43839D01*
X135887D01*
X135633Y44093D01*
X85850Y45109D02*
Y46632D01*
X86612D01*
X86866Y46378D01*
Y45871D01*
X86612Y45617D01*
X85850D01*
X86358D02*
X86866Y45109D01*
X87374D02*
X87882D01*
X87628D01*
Y46632D01*
X87374Y46378D01*
X89659Y45109D02*
X88644D01*
X89659Y46124D01*
Y46378D01*
X89405Y46632D01*
X88897D01*
X88644Y46378D01*
X85850Y73049D02*
Y74572D01*
X86612D01*
X86866Y74318D01*
Y73811D01*
X86612Y73557D01*
X85850D01*
X86358D02*
X86866Y73049D01*
X87374D02*
X87882D01*
X87628D01*
Y74572D01*
X87374Y74318D01*
X88644Y73049D02*
X89151D01*
X88897D01*
Y74572D01*
X88644Y74318D01*
X132840Y62889D02*
Y64412D01*
X133602D01*
X133856Y64158D01*
Y63651D01*
X133602Y63397D01*
X132840D01*
X133348D02*
X133856Y62889D01*
X134364D02*
X134872D01*
X134618D01*
Y64412D01*
X134364Y64158D01*
X135633D02*
X135887Y64412D01*
X136395D01*
X136649Y64158D01*
Y63143D01*
X136395Y62889D01*
X135887D01*
X135633Y63143D01*
Y64158D01*
X85850Y69239D02*
Y70762D01*
X86612D01*
X86866Y70508D01*
Y70001D01*
X86612Y69747D01*
X85850D01*
X86358D02*
X86866Y69239D01*
X87374Y69493D02*
X87628Y69239D01*
X88136D01*
X88390Y69493D01*
Y70508D01*
X88136Y70762D01*
X87628D01*
X87374Y70508D01*
Y70254D01*
X87628Y70001D01*
X88390D01*
X103630Y29869D02*
Y31392D01*
X104392D01*
X104646Y31138D01*
Y30631D01*
X104392Y30377D01*
X103630D01*
X104138D02*
X104646Y29869D01*
X105154Y31138D02*
X105408Y31392D01*
X105916D01*
X106170Y31138D01*
Y30884D01*
X105916Y30631D01*
X106170Y30377D01*
Y30123D01*
X105916Y29869D01*
X105408D01*
X105154Y30123D01*
Y30377D01*
X105408Y30631D01*
X105154Y30884D01*
Y31138D01*
X105408Y30631D02*
X105916D01*
X103630Y76859D02*
Y78382D01*
X104392D01*
X104646Y78128D01*
Y77621D01*
X104392Y77367D01*
X103630D01*
X104138D02*
X104646Y76859D01*
X105154Y78382D02*
X106170D01*
Y78128D01*
X105154Y77113D01*
Y76859D01*
X85850Y33679D02*
Y35202D01*
X86612D01*
X86866Y34948D01*
Y34441D01*
X86612Y34187D01*
X85850D01*
X86358D02*
X86866Y33679D01*
X88390Y35202D02*
X87882Y34948D01*
X87374Y34441D01*
Y33933D01*
X87628Y33679D01*
X88136D01*
X88390Y33933D01*
Y34187D01*
X88136Y34441D01*
X87374D01*
X132840Y47649D02*
Y49172D01*
X133602D01*
X133856Y48918D01*
Y48411D01*
X133602Y48157D01*
X132840D01*
X133348D02*
X133856Y47649D01*
X135380Y49172D02*
X134364D01*
Y48411D01*
X134872Y48664D01*
X135126D01*
X135380Y48411D01*
Y47903D01*
X135126Y47649D01*
X134618D01*
X134364Y47903D01*
X85850Y29869D02*
Y31392D01*
X86612D01*
X86866Y31138D01*
Y30631D01*
X86612Y30377D01*
X85850D01*
X86358D02*
X86866Y29869D01*
X88136D02*
Y31392D01*
X87374Y30631D01*
X88390D01*
X85850Y80669D02*
Y82192D01*
X86612D01*
X86866Y81938D01*
Y81431D01*
X86612Y81177D01*
X85850D01*
X86358D02*
X86866Y80669D01*
X87374Y81938D02*
X87628Y82192D01*
X88136D01*
X88390Y81938D01*
Y81684D01*
X88136Y81431D01*
X87882D01*
X88136D01*
X88390Y81177D01*
Y80923D01*
X88136Y80669D01*
X87628D01*
X87374Y80923D01*
X132840Y74319D02*
Y75842D01*
X133602D01*
X133856Y75588D01*
Y75081D01*
X133602Y74827D01*
X132840D01*
X133348D02*
X133856Y74319D01*
X135380D02*
X134364D01*
X135380Y75334D01*
Y75588D01*
X135126Y75842D01*
X134618D01*
X134364Y75588D01*
X85850Y76859D02*
Y78382D01*
X86612D01*
X86866Y78128D01*
Y77621D01*
X86612Y77367D01*
X85850D01*
X86358D02*
X86866Y76859D01*
X87374D02*
X87882D01*
X87628D01*
Y78382D01*
X87374Y78128D01*
X102030Y57123D02*
Y58139D01*
X101776Y58393D01*
X101268D01*
X101014Y58139D01*
Y57123D01*
X101268Y56869D01*
X101776D01*
X101522Y57377D02*
X102030Y56869D01*
X101776D02*
X102030Y57123D01*
X103553Y56869D02*
X102538D01*
X103553Y57885D01*
Y58139D01*
X103299Y58393D01*
X102792D01*
X102538Y58139D01*
X105077Y58393D02*
X104569Y58139D01*
X104061Y57631D01*
Y57123D01*
X104315Y56869D01*
X104823D01*
X105077Y57123D01*
Y57377D01*
X104823Y57631D01*
X104061D01*
X120496Y57275D02*
Y58291D01*
X120242Y58545D01*
X119734D01*
X119480Y58291D01*
Y57275D01*
X119734Y57021D01*
X120242D01*
X119988Y57529D02*
X120496Y57021D01*
X120242D02*
X120496Y57275D01*
X122019Y57021D02*
X121004D01*
X122019Y58037D01*
Y58291D01*
X121765Y58545D01*
X121257D01*
X121004Y58291D01*
X123543Y58545D02*
X122527D01*
Y57783D01*
X123035Y58037D01*
X123289D01*
X123543Y57783D01*
Y57275D01*
X123289Y57021D01*
X122781D01*
X122527Y57275D01*
X102030Y41883D02*
Y42899D01*
X101776Y43153D01*
X101268D01*
X101014Y42899D01*
Y41883D01*
X101268Y41629D01*
X101776D01*
X101522Y42137D02*
X102030Y41629D01*
X101776D02*
X102030Y41883D01*
X103553Y41629D02*
X102538D01*
X103553Y42645D01*
Y42899D01*
X103299Y43153D01*
X102792D01*
X102538Y42899D01*
X104823Y41629D02*
Y43153D01*
X104061Y42391D01*
X105077D01*
X102030Y66013D02*
Y67029D01*
X101776Y67283D01*
X101268D01*
X101014Y67029D01*
Y66013D01*
X101268Y65759D01*
X101776D01*
X101522Y66267D02*
X102030Y65759D01*
X101776D02*
X102030Y66013D01*
X103553Y65759D02*
X102538D01*
X103553Y66775D01*
Y67029D01*
X103299Y67283D01*
X102792D01*
X102538Y67029D01*
X104061D02*
X104315Y67283D01*
X104823D01*
X105077Y67029D01*
Y66775D01*
X104823Y66521D01*
X104569D01*
X104823D01*
X105077Y66267D01*
Y66013D01*
X104823Y65759D01*
X104315D01*
X104061Y66013D01*
X102030Y26643D02*
Y27659D01*
X101776Y27913D01*
X101268D01*
X101014Y27659D01*
Y26643D01*
X101268Y26389D01*
X101776D01*
X101522Y26897D02*
X102030Y26389D01*
X101776D02*
X102030Y26643D01*
X103553Y26389D02*
X102538D01*
X103553Y27405D01*
Y27659D01*
X103299Y27913D01*
X102792D01*
X102538Y27659D01*
X104061D02*
X104315Y27913D01*
X104823D01*
X105077Y27659D01*
Y26643D01*
X104823Y26389D01*
X104315D01*
X104061Y26643D01*
Y27659D01*
X102030Y88873D02*
Y89889D01*
X101776Y90143D01*
X101268D01*
X101014Y89889D01*
Y88873D01*
X101268Y88619D01*
X101776D01*
X101522Y89127D02*
X102030Y88619D01*
X101776D02*
X102030Y88873D01*
X102538Y88619D02*
X103046D01*
X102792D01*
Y90143D01*
X102538Y89889D01*
X103807Y88873D02*
X104061Y88619D01*
X104569D01*
X104823Y88873D01*
Y89889D01*
X104569Y90143D01*
X104061D01*
X103807Y89889D01*
Y89635D01*
X104061Y89381D01*
X104823D01*
X43940Y9193D02*
Y10209D01*
X43686Y10463D01*
X43178D01*
X42924Y10209D01*
Y9193D01*
X43178Y8939D01*
X43686D01*
X43432Y9447D02*
X43940Y8939D01*
X43686D02*
X43940Y9193D01*
X44448Y8939D02*
X44956D01*
X44702D01*
Y10463D01*
X44448Y10209D01*
X46733Y10463D02*
X46225Y10209D01*
X45717Y9701D01*
Y9193D01*
X45971Y8939D01*
X46479D01*
X46733Y9193D01*
Y9447D01*
X46479Y9701D01*
X45717D01*
X76960Y9193D02*
Y10209D01*
X76706Y10463D01*
X76198D01*
X75944Y10209D01*
Y9193D01*
X76198Y8939D01*
X76706D01*
X76452Y9447D02*
X76960Y8939D01*
X76706D02*
X76960Y9193D01*
X77468Y8939D02*
X77976D01*
X77722D01*
Y10463D01*
X77468Y10209D01*
X79753Y10463D02*
X78738D01*
Y9701D01*
X79245Y9955D01*
X79499D01*
X79753Y9701D01*
Y9193D01*
X79499Y8939D01*
X78991D01*
X78738Y9193D01*
X26846Y99490D02*
Y100506D01*
X26592Y100760D01*
X26084D01*
X25830Y100506D01*
Y99490D01*
X26084Y99236D01*
X26592D01*
X26338Y99744D02*
X26846Y99236D01*
X26592D02*
X26846Y99490D01*
X27354Y99236D02*
X27862D01*
X27608D01*
Y100760D01*
X27354Y100506D01*
X29385Y99236D02*
Y100760D01*
X28623Y99998D01*
X29639D01*
X101369Y50519D02*
Y51535D01*
X101116Y51789D01*
X100608D01*
X100354Y51535D01*
Y50519D01*
X100608Y50265D01*
X101116D01*
X100862Y50773D02*
X101369Y50265D01*
X101116D02*
X101369Y50519D01*
X101877Y50265D02*
X102385D01*
X102131D01*
Y51789D01*
X101877Y51535D01*
X103147D02*
X103401Y51789D01*
X103909D01*
X104163Y51535D01*
Y51281D01*
X103909Y51027D01*
X103655D01*
X103909D01*
X104163Y50773D01*
Y50519D01*
X103909Y50265D01*
X103401D01*
X103147Y50519D01*
X76376Y99490D02*
Y100506D01*
X76122Y100760D01*
X75614D01*
X75360Y100506D01*
Y99490D01*
X75614Y99236D01*
X76122D01*
X75868Y99744D02*
X76376Y99236D01*
X76122D02*
X76376Y99490D01*
X76884Y99236D02*
X77392D01*
X77138D01*
Y100760D01*
X76884Y100506D01*
X79169Y99236D02*
X78153D01*
X79169Y100252D01*
Y100506D01*
X78915Y100760D01*
X78407D01*
X78153Y100506D01*
X60526Y10031D02*
Y11047D01*
X60272Y11301D01*
X59765D01*
X59511Y11047D01*
Y10031D01*
X59765Y9777D01*
X60272D01*
X60018Y10285D02*
X60526Y9777D01*
X60272D02*
X60526Y10031D01*
X61034Y9777D02*
X61542D01*
X61288D01*
Y11301D01*
X61034Y11047D01*
X62304D02*
X62558Y11301D01*
X63065D01*
X63319Y11047D01*
Y10031D01*
X63065Y9777D01*
X62558D01*
X62304Y10031D01*
Y11047D01*
X101369Y74649D02*
Y75665D01*
X101116Y75919D01*
X100608D01*
X100354Y75665D01*
Y74649D01*
X100608Y74395D01*
X101116D01*
X100862Y74903D02*
X101369Y74395D01*
X101116D02*
X101369Y74649D01*
X101877D02*
X102131Y74395D01*
X102639D01*
X102893Y74649D01*
Y75665D01*
X102639Y75919D01*
X102131D01*
X101877Y75665D01*
Y75411D01*
X102131Y75157D01*
X102893D01*
X44016Y99541D02*
Y100557D01*
X43762Y100811D01*
X43255D01*
X43001Y100557D01*
Y99541D01*
X43255Y99287D01*
X43762D01*
X43508Y99795D02*
X44016Y99287D01*
X43762D02*
X44016Y99541D01*
X44524Y100811D02*
X45540D01*
Y100557D01*
X44524Y99541D01*
Y99287D01*
X60526Y99541D02*
Y100557D01*
X60272Y100811D01*
X59765D01*
X59511Y100557D01*
Y99541D01*
X59765Y99287D01*
X60272D01*
X60018Y99795D02*
X60526Y99287D01*
X60272D02*
X60526Y99541D01*
X62050Y100811D02*
X61542Y100557D01*
X61034Y100049D01*
Y99541D01*
X61288Y99287D01*
X61796D01*
X62050Y99541D01*
Y99795D01*
X61796Y100049D01*
X61034D01*
X101369Y35279D02*
Y36295D01*
X101116Y36549D01*
X100608D01*
X100354Y36295D01*
Y35279D01*
X100608Y35025D01*
X101116D01*
X100862Y35533D02*
X101369Y35025D01*
X101116D02*
X101369Y35279D01*
X102639Y35025D02*
Y36549D01*
X101877Y35787D01*
X102893D01*
X101369Y82269D02*
Y83285D01*
X101116Y83539D01*
X100608D01*
X100354Y83285D01*
Y82269D01*
X100608Y82015D01*
X101116D01*
X100862Y82523D02*
X101369Y82015D01*
X101116D02*
X101369Y82269D01*
X101877Y83285D02*
X102131Y83539D01*
X102639D01*
X102893Y83285D01*
Y83031D01*
X102639Y82777D01*
X102385D01*
X102639D01*
X102893Y82523D01*
Y82269D01*
X102639Y82015D01*
X102131D01*
X101877Y82269D01*
X7288Y39775D02*
Y41298D01*
X8050D01*
X8304Y41044D01*
Y40537D01*
X8050Y40283D01*
X7288D01*
X8812Y41044D02*
X9066Y41298D01*
X9573D01*
X9827Y41044D01*
Y40790D01*
X9573Y40537D01*
X9320D01*
X9573D01*
X9827Y40283D01*
Y40029D01*
X9573Y39775D01*
X9066D01*
X8812Y40029D01*
X6526Y67969D02*
Y69492D01*
X7288D01*
X7542Y69238D01*
Y68731D01*
X7288Y68477D01*
X6526D01*
X9065Y67969D02*
X8050D01*
X9065Y68984D01*
Y69238D01*
X8811Y69492D01*
X8304D01*
X8050Y69238D01*
X146380Y65557D02*
Y67081D01*
X147142D01*
X147396Y66827D01*
Y66319D01*
X147142Y66065D01*
X146380D01*
X147904Y65557D02*
X148412D01*
X148158D01*
Y67081D01*
X147904Y66827D01*
X8329Y85672D02*
X7821D01*
X8075D01*
Y84403D01*
X7821Y84149D01*
X7568D01*
X7314Y84403D01*
X9853Y84149D02*
X8837D01*
X9853Y85164D01*
Y85418D01*
X9599Y85672D01*
X9091D01*
X8837Y85418D01*
X91921Y12977D02*
X91667Y13231D01*
X91159D01*
X90905Y12977D01*
Y11962D01*
X91159Y11708D01*
X91667D01*
X91921Y11962D01*
X93190Y11708D02*
Y13231D01*
X92429Y12470D01*
X93444D01*
X147801Y18057D02*
X147547Y18311D01*
X147039D01*
X146785Y18057D01*
Y17042D01*
X147039Y16788D01*
X147547D01*
X147801Y17042D01*
X148309Y18057D02*
X148562Y18311D01*
X149070D01*
X149324Y18057D01*
Y17803D01*
X149070Y17550D01*
X148816D01*
X149070D01*
X149324Y17296D01*
Y17042D01*
X149070Y16788D01*
X148562D01*
X148309Y17042D01*
X130656Y12977D02*
X130402Y13231D01*
X129894D01*
X129640Y12977D01*
Y11962D01*
X129894Y11708D01*
X130402D01*
X130656Y11962D01*
X132179Y11708D02*
X131164D01*
X132179Y12723D01*
Y12977D01*
X131925Y13231D01*
X131417D01*
X131164Y12977D01*
X112241D02*
X111987Y13231D01*
X111479D01*
X111225Y12977D01*
Y11962D01*
X111479Y11708D01*
X111987D01*
X112241Y11962D01*
X112749Y11708D02*
X113256D01*
X113002D01*
Y13231D01*
X112749Y12977D01*
D15*
X147131Y62780D02*
X147300Y62949D01*
Y63288D01*
X147131Y63457D01*
X146454D01*
X146284Y63288D01*
Y62949D01*
X146454Y62780D01*
X146623D01*
X146792Y62949D01*
Y63457D01*
X147300Y42720D02*
Y43059D01*
Y42889D01*
X146284D01*
X146454Y42720D01*
X141223Y9652D02*
Y10498D01*
X141054Y10667D01*
X140715D01*
X140546Y10498D01*
Y9652D01*
X140208Y10667D02*
X139869D01*
X140038D01*
Y9652D01*
X140208Y9821D01*
D16*
X31749Y86359D02*
X48259D01*
X31749Y15239D02*
X48259D01*
M02*
