G04*
G04 #@! TF.GenerationSoftware,Altium Limited,Altium Designer,21.8.1 (53)*
G04*
G04 Layer_Physical_Order=2*
G04 Layer_Color=16711680*
%FSLAX43Y43*%
%MOMM*%
G71*
G04*
G04 #@! TF.SameCoordinates,43502BEE-6898-4BDF-A8F3-2E7845CCF1CD*
G04*
G04*
G04 #@! TF.FilePolarity,Positive*
G04*
G01*
G75*
%ADD15C,0.152*%
%ADD16C,2.032*%
%ADD20R,2.000X2.000*%
%ADD21C,2.000*%
%ADD32R,1.850X1.850*%
%ADD33C,1.850*%
%ADD43C,0.508*%
%ADD44C,0.762*%
%ADD45C,1.270*%
%ADD46C,3.048*%
%ADD47R,1.100X2.300*%
%ADD48C,1.400*%
%ADD49R,1.600X1.600*%
%ADD50C,1.600*%
%ADD51C,1.700*%
%ADD52R,1.700X1.700*%
%ADD53C,1.600*%
G04:AMPARAMS|DCode=54|XSize=1.6mm|YSize=1.6mm|CornerRadius=0.4mm|HoleSize=0mm|Usage=FLASHONLY|Rotation=90.000|XOffset=0mm|YOffset=0mm|HoleType=Round|Shape=RoundedRectangle|*
%AMROUNDEDRECTD54*
21,1,1.600,0.800,0,0,90.0*
21,1,0.800,1.600,0,0,90.0*
1,1,0.800,0.400,0.400*
1,1,0.800,0.400,-0.400*
1,1,0.800,-0.400,-0.400*
1,1,0.800,-0.400,0.400*
%
%ADD54ROUNDEDRECTD54*%
%ADD55R,1.400X1.400*%
%ADD56C,1.900*%
%ADD57R,1.900X1.900*%
%ADD58R,1.950X1.950*%
%ADD59C,1.950*%
%ADD60R,1.350X1.350*%
%ADD61C,1.350*%
%ADD62C,4.000*%
%ADD63C,1.778*%
%ADD64C,1.270*%
%ADD65C,2.540*%
D15*
X141223Y9652D02*
Y10498D01*
X141054Y10667D01*
X140715D01*
X140546Y10498D01*
Y9652D01*
X140208Y10667D02*
X139869D01*
X140038D01*
Y9652D01*
X140208Y9821D01*
D16*
X149224Y20954D02*
Y42544D01*
X147954Y19684D02*
X149224Y20954D01*
X142080Y13810D02*
X142715D01*
X147954Y19049D01*
X139699Y11429D02*
X142080Y13810D01*
X139699Y10159D02*
Y11429D01*
X148589Y43179D02*
X149224Y42544D01*
X148589Y2669D02*
Y10159D01*
X142239D02*
X148589D01*
X132079Y10119D02*
X137159D01*
X125729Y10159D02*
X132039D01*
X131444Y2669D02*
Y5119D01*
X87987Y94974D02*
X91185Y91776D01*
Y82549D02*
Y91776D01*
X35713Y94041D02*
Y98994D01*
X44388Y6411D02*
X45873D01*
X10921Y25145D02*
X11175Y25399D01*
X90804Y35681D02*
Y48259D01*
Y33654D02*
Y35681D01*
X89026Y20319D02*
X90804Y22097D01*
Y33654D01*
X128269Y86359D02*
Y99059D01*
X81279Y91439D02*
Y95249D01*
X64769Y92074D02*
Y95249D01*
X25399Y6984D02*
X26034Y6349D01*
X29209D01*
X60959Y7619D02*
X62229Y6349D01*
X124459Y21081D02*
X125729Y19811D01*
Y10159D02*
Y19811D01*
X132039Y10159D02*
X132079Y10119D01*
X104139Y2669D02*
X104139Y2669D01*
Y10159D01*
X92709Y2669D02*
Y5119D01*
X92709Y2669D02*
X92709Y2669D01*
X113029Y2669D02*
Y5119D01*
X91185Y48955D02*
Y82549D01*
X123189Y3174D02*
Y10159D01*
X106679D02*
X113029D01*
X120649D01*
X83819Y95249D02*
Y99059D01*
X86359Y20319D02*
X89026D01*
X83819Y95249D02*
X87987D01*
X42063Y6411D02*
X44388D01*
X10983Y35367D02*
X11175Y35559D01*
X10921Y35305D02*
X10983Y35367D01*
X43179Y7619D02*
X44388Y6411D01*
X40639Y25399D02*
X43179Y22859D01*
X15319Y25399D02*
X16509Y26590D01*
X81279Y6349D02*
Y8889D01*
X64769Y6349D02*
Y8889D01*
X48259Y6349D02*
Y8889D01*
X31749Y6349D02*
Y8889D01*
X72389Y22859D02*
X74929Y20319D01*
X86359D01*
X48259Y92709D02*
Y95249D01*
X50799D02*
X52069Y93979D01*
X34289Y95249D02*
X35559Y93979D01*
X31749Y92709D02*
Y95249D01*
X11429Y75009D02*
X11509Y74929D01*
X67309Y95249D02*
X71119Y91439D01*
X31749Y86359D02*
X48259D01*
X31749Y15239D02*
X48259D01*
D20*
X34289Y6349D02*
D03*
X66119Y45389D02*
D03*
X50719Y59089D02*
D03*
Y49089D02*
D03*
X67309Y6349D02*
D03*
X45719Y95249D02*
D03*
X62229D02*
D03*
D21*
X31749Y6349D02*
D03*
X29209D02*
D03*
X64769D02*
D03*
X62229D02*
D03*
X50799Y95249D02*
D03*
X48259D02*
D03*
X67309D02*
D03*
X64769D02*
D03*
D32*
X50799Y6349D02*
D03*
X83819D02*
D03*
X29209Y95249D02*
D03*
X78739D02*
D03*
D33*
X48259Y6349D02*
D03*
X45719D02*
D03*
X81279D02*
D03*
X78739D02*
D03*
X31749Y95249D02*
D03*
X34289D02*
D03*
X83819D02*
D03*
X81279D02*
D03*
D43*
X105409Y53279D02*
X106739Y54609D01*
X64769Y15239D02*
Y19049D01*
Y8889D02*
Y15239D01*
Y6349D02*
Y8889D01*
X31749Y92709D02*
Y95249D01*
Y86359D02*
Y92709D01*
Y82549D02*
Y86359D01*
X106739Y24129D02*
X106781D01*
X96519Y86359D02*
X101539D01*
X96519Y82549D02*
Y86359D01*
Y78739D02*
X101539D01*
X96519Y74929D02*
Y78739D01*
Y71119D02*
X101539D01*
X96519Y67309D02*
Y71119D01*
Y63499D02*
X101539D01*
X96519Y59689D02*
Y63499D01*
Y54609D02*
X101539D01*
X96519Y50799D02*
Y54609D01*
Y46989D02*
X101539D01*
X96519Y43179D02*
Y46989D01*
Y39369D02*
X101539D01*
X96519Y35559D02*
Y39369D01*
Y31749D02*
X101539D01*
X96519Y27939D02*
Y31749D01*
Y24129D02*
X101539D01*
X96519Y20319D02*
Y24129D01*
D44*
X90804Y33654D02*
X104834D01*
X106739Y31749D01*
X106679Y95249D02*
Y99059D01*
X128204Y86359D02*
X128269D01*
X106739D02*
Y90169D01*
X146049Y43179D02*
Y52069D01*
X143509Y41909D02*
X143631Y42031D01*
X143509Y53339D02*
X144779D01*
X144901Y42031D02*
X146049Y43179D01*
X144779Y53339D02*
X146049Y52069D01*
X143631Y42031D02*
X144901D01*
X91185Y48955D02*
X104773D01*
X106739Y46989D01*
X106679Y90169D02*
X106739D01*
X104773Y80705D02*
X106739Y78739D01*
X91439Y80705D02*
X104773D01*
X129539Y35559D02*
Y53339D01*
X133349Y57149D01*
X130809Y50799D02*
X133349Y53339D01*
X130809Y33019D02*
Y50799D01*
X140969Y48259D02*
X143509Y45719D01*
X140969Y48259D02*
Y54609D01*
X143509Y57149D01*
X116839Y90169D02*
Y95249D01*
X84967Y43057D02*
Y43301D01*
X86237Y43057D02*
X86359Y43179D01*
X104139Y82549D02*
Y86359D01*
Y74929D02*
Y78739D01*
Y67309D02*
Y71119D01*
Y58419D02*
Y63499D01*
Y50799D02*
Y54609D01*
Y43179D02*
Y46989D01*
Y35559D02*
Y39369D01*
Y27939D02*
Y31749D01*
Y19049D02*
Y24129D01*
X106739Y71119D02*
Y78739D01*
X86359Y35559D02*
X86481Y35681D01*
D45*
X90804D02*
X91063D01*
X86481D02*
X90804D01*
X115569Y24764D02*
X120776D01*
X124459Y21081D01*
X83819Y67309D02*
X86359D01*
X71119D02*
X83819D01*
Y44449D02*
Y67309D01*
Y72389D01*
X71119Y74929D02*
X86359D01*
X83819Y72389D02*
X86359Y74929D01*
X106679Y10159D02*
X109219Y12699D01*
X106739Y54609D02*
X109219Y52129D01*
Y12699D02*
Y52129D01*
X86359Y82549D02*
X91185D01*
X86359Y59689D02*
X91058D01*
X83819Y44449D02*
X84967Y43301D01*
Y43057D02*
X86237D01*
X83819Y41909D02*
X84967Y43057D01*
X83819Y29209D02*
Y41909D01*
Y29209D02*
X85089Y27939D01*
X86359D01*
D46*
X123189Y2669D02*
X131444D01*
X113029D02*
X123189D01*
X131444D02*
X148589D01*
X19049Y80071D02*
X24129D01*
X4090D02*
X19049D01*
X4090Y35367D02*
X10983D01*
X11175Y25399D02*
X15319D01*
X5018Y2601D02*
X42063D01*
X25399Y6984D02*
Y16509D01*
X57149Y11429D02*
X60642Y7937D01*
X104139Y2669D02*
X113029D01*
X92709D02*
X104139D01*
X73881D02*
X92709D01*
X73881D02*
X77623Y6411D01*
X73813Y2601D02*
X73881Y2669D01*
X71119Y67309D02*
Y74929D01*
Y63499D02*
Y67309D01*
Y74929D02*
Y86359D01*
X11583Y99121D02*
X144933D01*
X148743Y95311D01*
X3963Y91501D02*
X11583Y99121D01*
X42063Y2601D02*
Y6411D01*
Y2601D02*
X73813D01*
X148743Y64450D02*
Y95311D01*
X3963Y3174D02*
X3963Y91501D01*
X64769Y81279D02*
Y92074D01*
Y76199D02*
Y81279D01*
X54609Y86359D02*
Y91439D01*
Y81279D02*
Y86359D01*
X19049Y74929D02*
X24129D01*
X11509D02*
X19049D01*
X66119Y61289D02*
X68909D01*
X71119Y63499D01*
X11175Y35559D02*
X15239D01*
X16509Y34289D01*
Y26590D02*
Y34289D01*
X15319Y25399D02*
X40639D01*
X43179Y22859D02*
Y26669D01*
Y7619D02*
Y22859D01*
X31749Y15239D02*
Y19049D01*
Y8889D02*
Y15239D01*
X72389Y12699D02*
X77469Y7619D01*
X72389Y12699D02*
Y22859D01*
X64769Y8889D02*
Y15239D01*
X31749Y86359D02*
Y92709D01*
Y82549D02*
Y86359D01*
X10159Y48259D02*
X19049D01*
X10159Y53339D02*
X19049D01*
X10159Y63499D02*
X19049D01*
X10159Y58419D02*
X19049D01*
X64769Y15239D02*
Y19049D01*
X81279Y8889D02*
Y15239D01*
X38099Y91439D02*
X41909D01*
X35559Y93979D02*
X38099Y91439D01*
X48259Y8889D02*
Y15239D01*
X52069Y93979D02*
X54609Y91439D01*
X81279Y81279D02*
Y91439D01*
X71119Y86359D02*
Y91439D01*
X48259Y86359D02*
Y92709D01*
D47*
X66119Y61289D02*
D03*
X62819D02*
D03*
D48*
Y55389D02*
D03*
Y51189D02*
D03*
X96519Y39369D02*
D03*
X86359D02*
D03*
X133349Y41909D02*
D03*
X143509D02*
D03*
X104139Y67309D02*
D03*
X114299D02*
D03*
X96519Y71119D02*
D03*
X86359D02*
D03*
X133349Y60959D02*
D03*
X143509D02*
D03*
X86359Y43179D02*
D03*
X96519D02*
D03*
Y46989D02*
D03*
X86359D02*
D03*
X116839Y95249D02*
D03*
X106679D02*
D03*
Y90169D02*
D03*
X116839D02*
D03*
X86359Y50799D02*
D03*
X96519D02*
D03*
Y54609D02*
D03*
X86359D02*
D03*
X104139Y50799D02*
D03*
X114299D02*
D03*
X133349Y49529D02*
D03*
X143509D02*
D03*
X86359Y35559D02*
D03*
X96519D02*
D03*
X86359Y59689D02*
D03*
X96519D02*
D03*
Y63499D02*
D03*
X86359D02*
D03*
X104139Y35559D02*
D03*
X114299D02*
D03*
X104139Y58419D02*
D03*
X114299D02*
D03*
X133349Y57149D02*
D03*
X143509D02*
D03*
X133349Y64769D02*
D03*
X143509D02*
D03*
X86359Y20319D02*
D03*
X96519D02*
D03*
Y24129D02*
D03*
X86359D02*
D03*
Y82549D02*
D03*
X96519D02*
D03*
Y86359D02*
D03*
X86359D02*
D03*
X104139Y19049D02*
D03*
X114299D02*
D03*
X104139Y82549D02*
D03*
X114299D02*
D03*
X133349Y53339D02*
D03*
X143509D02*
D03*
X133349Y68579D02*
D03*
X143509D02*
D03*
X104139Y43179D02*
D03*
X114299D02*
D03*
X86359Y67309D02*
D03*
X96519D02*
D03*
X104139Y27939D02*
D03*
X114299D02*
D03*
X104139Y74929D02*
D03*
X114299D02*
D03*
X96519Y31749D02*
D03*
X86359D02*
D03*
X133349Y45719D02*
D03*
X143509D02*
D03*
X86359Y27939D02*
D03*
X96519D02*
D03*
Y78739D02*
D03*
X86359D02*
D03*
X133349Y72389D02*
D03*
X143509D02*
D03*
X86359Y74929D02*
D03*
X96519D02*
D03*
X104139Y54609D02*
D03*
X101539D02*
D03*
X104139Y39369D02*
D03*
X101539D02*
D03*
X104139Y63499D02*
D03*
X101539D02*
D03*
X104139Y24129D02*
D03*
X101539D02*
D03*
X104139Y86359D02*
D03*
X101539D02*
D03*
X104139Y46989D02*
D03*
X106739D02*
D03*
X104139Y71119D02*
D03*
X106739D02*
D03*
X104139Y31749D02*
D03*
X106739D02*
D03*
X104139Y78739D02*
D03*
X106739D02*
D03*
D49*
X142239Y10159D02*
D03*
D50*
X139699D02*
D03*
X137159D02*
D03*
D51*
X125729D02*
D03*
X123189D02*
D03*
X106679Y10159D02*
D03*
X104139D02*
D03*
D52*
X120649Y10159D02*
D03*
X101599Y10159D02*
D03*
D53*
X149000Y63160D02*
D03*
Y60620D02*
D03*
Y58080D02*
D03*
Y53000D02*
D03*
Y47920D02*
D03*
Y45380D02*
D03*
Y50460D02*
D03*
Y55540D02*
D03*
D54*
Y42840D02*
D03*
D55*
X106739Y54609D02*
D03*
Y39369D02*
D03*
Y63499D02*
D03*
Y24129D02*
D03*
Y86359D02*
D03*
X101539Y46989D02*
D03*
Y71119D02*
D03*
Y31749D02*
D03*
Y78739D02*
D03*
D56*
X10921Y35305D02*
D03*
Y30225D02*
D03*
Y25145D02*
D03*
X10159Y63499D02*
D03*
Y58419D02*
D03*
Y53339D02*
D03*
D57*
X10921Y20065D02*
D03*
X10159Y48259D02*
D03*
D58*
X11429Y75009D02*
D03*
D59*
Y80009D02*
D03*
D60*
X92709Y10119D02*
D03*
X148589Y15199D02*
D03*
X131444Y10119D02*
D03*
X113029D02*
D03*
D61*
X92709Y5119D02*
D03*
X148589Y10199D02*
D03*
X131444Y5119D02*
D03*
X113029D02*
D03*
D62*
X145000Y95000D02*
D03*
X95000D02*
D03*
X145000Y20000D02*
D03*
X95000Y15000D02*
D03*
D63*
X90804Y91439D02*
D03*
X19049Y80009D02*
D03*
X24129Y80071D02*
D03*
X43179Y26669D02*
D03*
X25399Y16509D02*
D03*
Y12699D02*
D03*
X57149Y11429D02*
D03*
X19049Y74929D02*
D03*
Y48259D02*
D03*
Y63499D02*
D03*
Y53339D02*
D03*
X64769Y19049D02*
D03*
X81279Y15239D02*
D03*
X64769D02*
D03*
X31749Y86359D02*
D03*
Y19049D02*
D03*
Y15239D02*
D03*
X48259D02*
D03*
X19049Y58419D02*
D03*
X64769Y76199D02*
D03*
X81279Y81279D02*
D03*
X64769D02*
D03*
X54609D02*
D03*
X24129Y74929D02*
D03*
X71119Y86359D02*
D03*
X54609D02*
D03*
X41909Y91439D02*
D03*
X38099D02*
D03*
X48259Y86359D02*
D03*
X31749Y82549D02*
D03*
D64*
X115569Y24764D02*
D03*
X128269Y86359D02*
D03*
X129539Y35559D02*
D03*
X130809Y33019D02*
D03*
D65*
X147954Y15834D02*
X148589Y15199D01*
X147954Y15834D02*
Y19049D01*
Y19684D01*
M02*
