G04*
G04 #@! TF.GenerationSoftware,Altium Limited,Altium Designer,21.8.1 (53)*
G04*
G04 Layer_Color=16711935*
%FSLAX43Y43*%
%MOMM*%
G71*
G04*
G04 #@! TF.SameCoordinates,43502BEE-6898-4BDF-A8F3-2E7845CCF1CD*
G04*
G04*
G04 #@! TF.FilePolarity,Negative*
G04*
G01*
G75*
%ADD15C,0.152*%
%ADD16C,2.032*%
%ADD20R,2.000X2.000*%
%ADD21C,2.000*%
%ADD22R,1.303X2.503*%
%ADD23C,1.603*%
%ADD24R,2.203X2.203*%
%ADD25R,1.803X1.803*%
%ADD26C,1.803*%
%ADD27C,1.903*%
%ADD28R,1.903X1.903*%
%ADD29C,1.803*%
G04:AMPARAMS|DCode=30|XSize=1.803mm|YSize=1.803mm|CornerRadius=0.502mm|HoleSize=0mm|Usage=FLASHONLY|Rotation=90.000|XOffset=0mm|YOffset=0mm|HoleType=Round|Shape=RoundedRectangle|*
%AMROUNDEDRECTD30*
21,1,1.803,0.800,0,0,90.0*
21,1,0.800,1.803,0,0,90.0*
1,1,1.003,0.400,0.400*
1,1,1.003,0.400,-0.400*
1,1,1.003,-0.400,-0.400*
1,1,1.003,-0.400,0.400*
%
%ADD30ROUNDEDRECTD30*%
%ADD31R,1.603X1.603*%
%ADD32R,1.850X1.850*%
%ADD33C,1.850*%
%ADD34C,2.103*%
%ADD35R,2.103X2.103*%
%ADD36R,2.153X2.153*%
%ADD37C,2.153*%
%ADD38R,1.553X1.553*%
%ADD39C,1.553*%
%ADD40C,4.203*%
%ADD41C,1.981*%
%ADD42C,1.473*%
D15*
X141223Y9652D02*
Y10498D01*
X141054Y10667D01*
X140715D01*
X140546Y10498D01*
Y9652D01*
X140208Y10667D02*
X139869D01*
X140038D01*
Y9652D01*
X140208Y9821D01*
D16*
X31749Y86359D02*
X48259D01*
X31749Y15239D02*
X48259D01*
D20*
X34289Y6349D02*
D03*
X67309D02*
D03*
X45719Y95249D02*
D03*
X62229D02*
D03*
D21*
X31749Y6349D02*
D03*
X29209D02*
D03*
X64769D02*
D03*
X62229D02*
D03*
X50799Y95249D02*
D03*
X48259D02*
D03*
X67309D02*
D03*
X64769D02*
D03*
D22*
X66119Y61289D02*
D03*
X62819D02*
D03*
D23*
Y55389D02*
D03*
Y51189D02*
D03*
X96519Y39369D02*
D03*
X86359D02*
D03*
X133349Y41909D02*
D03*
X143509D02*
D03*
X104139Y67309D02*
D03*
X114299D02*
D03*
X96519Y71119D02*
D03*
X86359D02*
D03*
X133349Y60959D02*
D03*
X143509D02*
D03*
X86359Y43179D02*
D03*
X96519D02*
D03*
Y46989D02*
D03*
X86359D02*
D03*
X116839Y95249D02*
D03*
X106679D02*
D03*
Y90169D02*
D03*
X116839D02*
D03*
X86359Y50799D02*
D03*
X96519D02*
D03*
Y54609D02*
D03*
X86359D02*
D03*
X104139Y50799D02*
D03*
X114299D02*
D03*
X133349Y49529D02*
D03*
X143509D02*
D03*
X86359Y35559D02*
D03*
X96519D02*
D03*
X86359Y59689D02*
D03*
X96519D02*
D03*
Y63499D02*
D03*
X86359D02*
D03*
X104139Y35559D02*
D03*
X114299D02*
D03*
X104139Y58419D02*
D03*
X114299D02*
D03*
X133349Y57149D02*
D03*
X143509D02*
D03*
X133349Y64769D02*
D03*
X143509D02*
D03*
X86359Y20319D02*
D03*
X96519D02*
D03*
Y24129D02*
D03*
X86359D02*
D03*
Y82549D02*
D03*
X96519D02*
D03*
Y86359D02*
D03*
X86359D02*
D03*
X104139Y19049D02*
D03*
X114299D02*
D03*
X104139Y82549D02*
D03*
X114299D02*
D03*
X133349Y53339D02*
D03*
X143509D02*
D03*
X133349Y68579D02*
D03*
X143509D02*
D03*
X104139Y43179D02*
D03*
X114299D02*
D03*
X86359Y67309D02*
D03*
X96519D02*
D03*
X104139Y27939D02*
D03*
X114299D02*
D03*
X104139Y74929D02*
D03*
X114299D02*
D03*
X96519Y31749D02*
D03*
X86359D02*
D03*
X133349Y45719D02*
D03*
X143509D02*
D03*
X86359Y27939D02*
D03*
X96519D02*
D03*
Y78739D02*
D03*
X86359D02*
D03*
X133349Y72389D02*
D03*
X143509D02*
D03*
X86359Y74929D02*
D03*
X96519D02*
D03*
X104139Y54609D02*
D03*
X101539D02*
D03*
X104139Y39369D02*
D03*
X101539D02*
D03*
X104139Y63499D02*
D03*
X101539D02*
D03*
X104139Y24129D02*
D03*
X101539D02*
D03*
X104139Y86359D02*
D03*
X101539D02*
D03*
X104139Y46989D02*
D03*
X106739D02*
D03*
X104139Y71119D02*
D03*
X106739D02*
D03*
X104139Y31749D02*
D03*
X106739D02*
D03*
X104139Y78739D02*
D03*
X106739D02*
D03*
D24*
X66119Y45389D02*
D03*
X50719Y59089D02*
D03*
Y49089D02*
D03*
D25*
X142239Y10159D02*
D03*
D26*
X139699D02*
D03*
X137159D02*
D03*
D27*
X125729D02*
D03*
X123189D02*
D03*
X106679Y10159D02*
D03*
X104139D02*
D03*
D28*
X120649Y10159D02*
D03*
X101599Y10159D02*
D03*
D29*
X149000Y63160D02*
D03*
Y60620D02*
D03*
Y58080D02*
D03*
Y53000D02*
D03*
Y47920D02*
D03*
Y45380D02*
D03*
Y50460D02*
D03*
Y55540D02*
D03*
D30*
Y42840D02*
D03*
D31*
X106739Y54609D02*
D03*
Y39369D02*
D03*
Y63499D02*
D03*
Y24129D02*
D03*
Y86359D02*
D03*
X101539Y46989D02*
D03*
Y71119D02*
D03*
Y31749D02*
D03*
Y78739D02*
D03*
D32*
X50799Y6349D02*
D03*
X83819D02*
D03*
X29209Y95249D02*
D03*
X78739D02*
D03*
D33*
X48259Y6349D02*
D03*
X45719D02*
D03*
X81279D02*
D03*
X78739D02*
D03*
X31749Y95249D02*
D03*
X34289D02*
D03*
X83819D02*
D03*
X81279D02*
D03*
D34*
X10921Y35305D02*
D03*
Y30225D02*
D03*
Y25145D02*
D03*
X10159Y63499D02*
D03*
Y58419D02*
D03*
Y53339D02*
D03*
D35*
X10921Y20065D02*
D03*
X10159Y48259D02*
D03*
D36*
X11429Y75009D02*
D03*
D37*
Y80009D02*
D03*
D38*
X92709Y10119D02*
D03*
X148589Y15199D02*
D03*
X131444Y10119D02*
D03*
X113029D02*
D03*
D39*
X92709Y5119D02*
D03*
X148589Y10199D02*
D03*
X131444Y5119D02*
D03*
X113029D02*
D03*
D40*
X145000Y95000D02*
D03*
X95000D02*
D03*
X145000Y20000D02*
D03*
X95000Y15000D02*
D03*
D41*
X90804Y91439D02*
D03*
X19049Y80009D02*
D03*
X24129Y80071D02*
D03*
X43179Y26669D02*
D03*
X25399Y16509D02*
D03*
Y12699D02*
D03*
X57149Y11429D02*
D03*
X19049Y74929D02*
D03*
Y48259D02*
D03*
Y63499D02*
D03*
Y53339D02*
D03*
X64769Y19049D02*
D03*
X81279Y15239D02*
D03*
X64769D02*
D03*
X31749Y86359D02*
D03*
Y19049D02*
D03*
Y15239D02*
D03*
X48259D02*
D03*
X19049Y58419D02*
D03*
X64769Y76199D02*
D03*
X81279Y81279D02*
D03*
X64769D02*
D03*
X54609D02*
D03*
X24129Y74929D02*
D03*
X71119Y86359D02*
D03*
X54609D02*
D03*
X41909Y91439D02*
D03*
X38099D02*
D03*
X48259Y86359D02*
D03*
X31749Y82549D02*
D03*
D42*
X115569Y24764D02*
D03*
X128269Y86359D02*
D03*
X129539Y35559D02*
D03*
X130809Y33019D02*
D03*
M02*
