M48
;Layer_Color=9474304
;FILE_FORMAT=4:3
METRIC,LZ
;TYPE=PLATED
T1F00S00C0.711
T2F00S00C0.800
T3F00S00C0.850
T4F00S00C0.900
T5F00S00C1.000
T6F00S00C1.016
T7F00S00C1.100
T8F00S00C1.200
T9F00S00C1.300
T10F00S00C1.400
T11F00S00C3.500
%
T01
X0115569Y0024764
X0130809Y0033019
X0129539Y0035559
X0128269Y0086359
T02
X0092709Y0005119
Y0010119
X0113029
Y0005119
X0131444
Y0010119
X0148589Y0010199
Y0015199
T03
X0086359Y0020319
Y0024129
Y0027939
Y0031749
Y0035559
Y0039369
X0096519
Y0035559
Y0031749
Y0027939
Y0024129
Y0020319
X0104139Y0019049
Y0027939
Y0035559
X0114299
Y0027939
Y0019049
X0133349Y0041909
Y0045719
Y0049529
Y0053339
Y0057149
Y0060959
Y0064769
Y0068579
Y0072389
X0143509
Y0068579
Y0064769
Y0060959
Y0057149
Y0053339
Y0049529
Y0045719
Y0041909
X0114299Y0043179
Y0050799
Y0058419
Y0067309
Y0074929
X0104139
Y0067309
X0096519
Y0071119
Y0074929
Y0078739
X0086359
Y0074929
Y0071119
Y0067309
Y0063499
Y0059689
Y0054609
Y0050799
Y0046989
Y0043179
X0096519
Y0046989
Y0050799
Y0054609
Y0059689
Y0063499
X0104139Y0058419
Y0050799
Y0043179
Y0082549
X0096519
Y0086359
X0086359
Y0082549
X0106679Y0090169
Y0095249
X0116839
Y0090169
X0114299Y0082549
T04
X0101539Y0024129
X0104139
X0106739
Y0031749
X0104139
X0101539
Y0039369
X0104139
X0106739
Y0046989
X0104139
X0101539
Y0054609
X0104139
X0106739
Y0063499
X0104139
X0101539
Y0071119
X0104139
X0106739
Y0078739
X0104139
X0101539
Y0086359
X0104139
X0106739
T05
X0137159Y0010159
X0139699
X0142239
T06
X0025399Y0012699
Y0016509
X0031749Y0015239
Y0019049
X0043179Y0026669
X0048259Y0015239
X0057149Y0011429
X0064769Y0015239
Y0019049
X0081279Y0015239
X0064769Y0076199
X0024129Y0074929
X0019049
Y0063499
Y0058419
Y0053339
Y0048259
Y0080009
X0024129Y0080071
X0031749Y0082549
Y0086359
X0038099Y0091439
X0041909
X0048259Y0086359
X0054609
Y0081279
X0064769
X0071119Y0086359
X0081279Y0081279
X0090804Y0091439
T07
X0101599Y0010159
X0104139
X0106679
X0120649Y0010159
X0123189
X0125729
X0149Y004284
Y004538
Y004792
Y005046
Y0053
Y005554
Y005808
Y006062
Y006316
T08
X0045719Y0006349
X0048259
X0050799
X0078739
X0081279
X0083819
X0034289Y0095249
X0031749
X0029209
X0078739
X0081279
X0083819
T09
X0029209Y0006349
X0031749
X0034289
X0062229
X0064769
X0067309
X0011429Y0075009
Y0080009
X0045719Y0095249
X0048259
X0050799
X0062229
X0064769
X0067309
T10
X0010921Y0020065
Y0025145
Y0030225
Y0035305
X0010159Y0048259
Y0053339
Y0058419
Y0063499
T11
X0095Y0015
X0145Y002
X0095Y0095
X0145
M30
